<svg xmlns="http://www.w3.org/2000/svg" width="375" viewBox="0 0 375 375" height="375" version="1.0"><defs><clipPath id="a"><path d="M 51.042969 146 L 291 146 L 291 375 L 51.042969 375 Z M 51.042969 146"/></clipPath><clipPath id="b"><path d="M 255 24 L 324.042969 24 L 324.042969 87 L 255 87 Z M 255 24"/></clipPath></defs><path fill="#A2D2FF" d="M 315.707031 59.945312 C 314.742188 63.757812 311.480469 66.699219 307.796875 68.082031 C 304.113281 69.464844 300.054688 69.480469 296.148438 69.027344 C 291.25 68.453125 286.351562 67.132812 282.226562 64.425781 C 278.105469 61.71875 274.824219 57.507812 273.964844 52.652344 C 273.109375 47.796875 274.996094 42.375 279.117188 39.671875 L 276.539062 38.796875 C 270.257812 36.152344 262.570312 38.621094 257.992188 43.667969 C 253.410156 48.714844 251.636719 55.839844 251.898438 62.648438 C 252.160156 69.460938 254.273438 76.058594 256.648438 82.445312 C 258.210938 86.644531 260.125 91.078125 263.941406 93.425781 C 267.324219 95.507812 271.554688 95.527344 275.515625 95.230469 C 285.511719 94.484375 295.675781 91.976562 303.679688 85.945312 C 311.683594 79.914062 317.136719 69.863281 315.707031 59.945312 Z M 315.707031 59.945312"/><path fill="#A2D2FF" d="M 151.691406 165.082031 C 143.109375 166.816406 134.53125 168.550781 125.949219 170.285156 C 118.554688 206.296875 111.15625 242.308594 103.761719 278.320312 C 149.441406 309.296875 168.769531 185.386719 151.691406 165.082031 Z M 151.691406 165.082031"/><path d="M 117.960938 1.152344 C 114.945312 3.464844 113.1875 7.019531 110.984375 10.046875 C 107.613281 15.046875 104.558594 20.234375 101.816406 25.605469 C 95.570312 37.996094 90.546875 50.867188 86.742188 64.210938 C 80.996094 68.046875 75.234375 72.265625 72.097656 78.605469 C 70.902344 81.035156 69.917969 83.546875 69.144531 86.144531 C 68.371094 88.738281 67.824219 91.382812 67.496094 94.070312 C 67.167969 96.761719 67.066406 99.457031 67.195312 102.164062 C 67.320312 104.867188 67.671875 107.542969 68.25 110.191406 C 68.9375 114.582031 70.152344 118.824219 71.890625 122.914062 C 73.628906 127.003906 75.839844 130.824219 78.519531 134.371094 C 82.171875 139.429688 86.945312 143.492188 92.089844 146.96875 C 90.757812 145.554688 89.472656 144.09375 88.203125 142.621094 C 83.191406 137.1875 78.808594 127.878906 77.324219 123.675781 C 74.320312 114.058594 73.996094 108.148438 73.28125 101.503906 C 72.789062 92.460938 73.878906 86.714844 76.183594 79.324219 C 77.800781 74.507812 82.25 69.273438 86.628906 64.601562 C 86.574219 64.804688 86.507812 65.003906 86.453125 65.207031 C 86.625 64.878906 86.800781 64.558594 86.972656 64.230469 C 87.125 64.074219 87.273438 63.910156 87.421875 63.753906 C 87.320312 63.820312 87.222656 63.890625 87.121094 63.957031 C 96.859375 45.601562 107.578125 27.839844 119.277344 10.671875 C 119.25 27.453125 117.527344 45.46875 117.753906 62.578125 C 119.734375 51.761719 121.507812 40.90625 123.203125 30.042969 C 124.34375 22.214844 125.851562 14.34375 125.652344 6.402344 C 125.960938 1.859375 122.1875 -1.828125 117.960938 1.152344 Z M 117.960938 1.152344"/><path d="M 207.101562 38.660156 C 206.234375 31.378906 206.257812 23.761719 203.707031 16.820312 C 202.601562 13.476562 198.878906 11.097656 195.605469 13.152344 C 193.589844 14.429688 192.527344 16.640625 191.449219 18.6875 C 189.761719 21.921875 188.171875 25.203125 186.601562 28.492188 C 182.277344 37.511719 177.691406 46.484375 174.546875 55.972656 C 174.574219 55.675781 174.605469 55.378906 174.636719 55.082031 C 175.046875 50.917969 175.042969 46.597656 173.464844 42.660156 C 167.316406 25.03125 150.253906 25.605469 136.089844 33.261719 C 130.40625 36.65625 125.863281 41.609375 121.304688 46.335938 C 128.691406 41.617188 135.917969 36.121094 144.742188 34.527344 C 156.777344 31.316406 165.960938 33.523438 171.632812 45.085938 C 173.449219 48.453125 173.976562 52.332031 174.515625 56.070312 C 173.5625 58.910156 172.765625 61.796875 172.128906 64.722656 C 179.246094 50.824219 189.3125 38.765625 196.796875 25.085938 C 197.085938 24.597656 197.363281 24.105469 197.648438 23.613281 C 200.039062 36.550781 202.328125 49.503906 205.296875 62.328125 C 206.390625 67.316406 207.433594 72.316406 208.5625 77.296875 C 208.570312 76.828125 208.582031 76.359375 208.589844 75.890625 C 208.824219 63.449219 208.328125 51.039062 207.101562 38.660156 Z M 207.101562 38.660156"/><path d="M 209.882812 73.429688 C 212.378906 79.515625 213.695312 85.007812 213.691406 90.839844 C 213.757812 96.132812 213.839844 98.515625 212.664062 102.914062 C 211.039062 109.070312 207.152344 114.289062 204.566406 117.539062 C 204.609375 117.480469 204.785156 117.253906 205.050781 116.910156 C 200.703125 122.226562 195.8125 126.757812 190.863281 131.15625 C 186.542969 134.847656 180.609375 139.402344 177.21875 142.066406 C 175.578125 143.308594 173.882812 144.476562 172.140625 145.570312 C 178.378906 143.835938 184.15625 140.804688 189.894531 137.867188 C 204.097656 130.210938 218.378906 117.511719 218.621094 100.210938 C 218.597656 90.644531 215.789062 81.03125 209.882812 73.429688 Z M 209.882812 73.429688"/><path d="M 113.074219 70.484375 C 104.722656 70.691406 104.746094 82.921875 113.074219 83.152344 C 121.425781 82.945312 121.40625 70.714844 113.074219 70.484375 Z M 113.074219 70.484375"/><path d="M 173.09375 74.355469 C 164.742188 74.5625 164.765625 86.792969 173.09375 87.023438 C 181.445312 86.816406 181.425781 74.585938 173.09375 74.355469 Z M 173.09375 74.355469"/><path d="M 141.933594 100.601562 C 139.527344 100.226562 137.105469 100.058594 134.667969 100.097656 C 137.160156 100.785156 139.660156 101.476562 142.09375 102.34375 C 142.097656 102.289062 142.167969 102.347656 142.253906 102.417969 C 140.488281 104.488281 137.917969 106.917969 135.867188 109.078125 C 135.167969 109.820312 134.410156 110.496094 133.597656 111.113281 C 132.476562 107.007812 132.015625 102.351562 130.984375 98.109375 C 130.800781 102.085938 130.707031 106.070312 130.921875 110.046875 C 130.894531 113.882812 132.972656 115.246094 136 112.554688 C 138.789062 110.007812 141.261719 107.183594 143.417969 104.085938 C 144.992188 102.25 144.246094 100.871094 141.933594 100.601562 Z M 141.933594 100.601562"/><path d="M 139.082031 122.65625 C 136.050781 123.050781 133.105469 122.699219 130.25 121.601562 C 127.078125 120.320312 123.523438 117.296875 120.335938 115.042969 C 122.9375 118.195312 125.621094 121.613281 129.449219 123.308594 C 131.285156 124.03125 133.191406 124.34375 135.164062 124.25 C 137.136719 124.152344 139.003906 123.660156 140.765625 122.761719 C 141.285156 122.488281 141.785156 122.179688 142.261719 121.832031 C 141.230469 122.222656 140.171875 122.496094 139.082031 122.65625 Z M 139.082031 122.65625"/><path d="M 315.625 197.351562 C 311.804688 175.316406 303.433594 152.390625 285.449219 138.039062 C 282.472656 135.628906 279.3125 133.496094 275.960938 131.636719 C 273.8125 130.355469 271.398438 128.996094 268.820312 129.605469 C 268.207031 129.761719 267.644531 130.019531 267.121094 130.371094 C 266.601562 130.726562 266.15625 131.15625 265.78125 131.667969 C 265.410156 132.175781 265.136719 132.730469 264.957031 133.335938 C 264.777344 133.941406 264.707031 134.558594 264.742188 135.1875 C 264.765625 137.273438 266.050781 139.078125 267.125 140.78125 C 278.542969 156.804688 285.457031 166.019531 289.28125 181.300781 C 291.921875 190.75 290.332031 199.832031 285.199219 209.085938 C 281.125 216.308594 277.890625 221.003906 271.523438 226.308594 C 269.769531 227.917969 263.902344 230.6875 260.921875 232.898438 C 259.824219 233.816406 258.835938 234.835938 257.953125 235.964844 C 256.988281 233.46875 255.71875 231.140625 254.144531 228.976562 C 252.40625 226.621094 250.480469 224.429688 248.371094 222.398438 C 246.261719 220.367188 243.996094 218.527344 241.578125 216.878906 C 239.15625 215.230469 236.613281 213.792969 233.953125 212.574219 C 231.289062 211.355469 228.542969 210.367188 225.714844 209.613281 C 215.542969 206.964844 207.691406 208.777344 200.921875 204.269531 C 198.007812 201.6875 196.617188 199.148438 194.355469 194.273438 C 191.222656 187.765625 188.085938 178.75 185.65625 169.949219 C 184.246094 165.546875 182.953125 160.925781 180.226562 157.132812 C 178.148438 154.523438 174.953125 153.25 172.078125 151.738281 C 174.453125 153.46875 176.972656 154.882812 178.71875 157.277344 C 180.832031 160.582031 181.390625 164.628906 182.199219 168.402344 C 183.691406 177.824219 185.402344 187.234375 188.550781 196.261719 C 189.972656 200.503906 191.558594 204.785156 194.484375 208.242188 C 201.394531 216.84375 213.496094 215.632812 223.117188 218.578125 C 225.558594 219.324219 227.917969 220.265625 230.199219 221.40625 C 232.476562 222.546875 234.648438 223.871094 236.707031 225.375 C 238.765625 226.878906 240.683594 228.542969 242.464844 230.367188 C 244.242188 232.195312 245.859375 234.15625 247.308594 236.253906 C 251.441406 242.828125 254.15625 255.527344 256.164062 266.542969 C 258.65625 280.363281 257.613281 300.816406 254.25 316.40625 C 254.0625 317.238281 253.855469 318.066406 253.636719 318.890625 C 253.75 318.640625 253.863281 318.390625 253.976562 318.140625 C 258.167969 307.910156 261.09375 297.328125 262.746094 286.394531 C 264.75 272.585938 263.597656 258.449219 260.644531 244.859375 C 260.003906 242.003906 259.175781 239.203125 258.15625 236.460938 C 259.246094 235.40625 260.4375 234.480469 261.734375 233.695312 C 265.527344 231.726562 269.78125 230.753906 273.4375 228.492188 C 282.355469 223.042969 289.410156 214.796875 294.304688 205.625 C 300.429688 195.046875 299.585938 182.183594 295.96875 170.90625 C 294.519531 166.03125 292.605469 161.347656 290.226562 156.851562 C 299.273438 169.699219 304.746094 187.253906 307.628906 203.007812 C 308.652344 209.765625 309.773438 220.113281 308.332031 226.585938 C 305.449219 240.46875 299.1875 249.863281 287.832031 259.726562 C 283.234375 263.644531 274.261719 267.425781 266.488281 267.84375 C 270.574219 268.179688 274.609375 267.871094 278.597656 266.925781 C 282.582031 265.976562 286.324219 264.4375 289.824219 262.304688 C 302.886719 253.96875 312.832031 240.726562 315.992188 225.453125 C 317.796875 216.179688 316.921875 206.636719 315.625 197.351562 Z M 315.625 197.351562"/><path d="M 167.300781 219.730469 C 163.902344 238.25 162.460938 256.925781 162.972656 275.746094 C 167.253906 257.40625 168.417969 238.503906 167.300781 219.730469 Z M 167.300781 219.730469"/><g clip-path="url(#a)"><path d="M 254.003906 322.066406 C 244.011719 312.035156 231.828125 304.382812 219.261719 297.980469 C 211.9375 294.625 204.246094 292.207031 196.5 290.011719 C 194.71875 287.949219 192.757812 286.082031 190.613281 284.40625 C 189.222656 283.167969 188.007812 281.78125 186.960938 280.246094 C 185.992188 278.980469 185.382812 277.5625 185.136719 275.992188 C 183.542969 269.007812 185.644531 257.59375 190.21875 252.734375 C 201.996094 240.328125 203.511719 252.867188 202.347656 229.695312 C 201.378906 233.875 201.222656 238.371094 199.570312 242.339844 C 199.402344 242.613281 198.984375 242.734375 198.332031 242.910156 C 192.292969 243.886719 186.140625 248.816406 183.628906 252.738281 C 182.371094 254.730469 181.363281 256.839844 180.601562 259.066406 C 179.839844 261.292969 179.34375 263.574219 179.117188 265.917969 C 178.886719 268.257812 178.933594 270.59375 179.25 272.925781 C 179.566406 275.257812 180.148438 277.523438 180.996094 279.71875 C 182.816406 283.289062 185.960938 285.925781 189.339844 288.019531 C 174.398438 283.511719 158.734375 282.648438 143.359375 284.589844 C 144.109375 273.664062 144.996094 262.753906 146.097656 251.855469 C 146.839844 239.925781 147.121094 227.96875 147.335938 216.019531 C 141.292969 238.335938 138.179688 261.835938 142.253906 284.726562 C 136.691406 285.484375 131.199219 286.582031 125.773438 288.027344 C 121.171875 289.1875 116.667969 290.648438 112.257812 292.410156 C 114.75 278.628906 115.648438 264.75 114.957031 250.761719 C 114.359375 239.582031 112.992188 228.410156 109.460938 217.742188 C 110.84375 230.792969 109.960938 243.894531 110.152344 256.984375 C 110.089844 268.933594 111.046875 280.847656 111.320312 292.785156 C 101.6875 296.6875 92.808594 301.878906 84.679688 308.351562 C 83.183594 309.609375 81.707031 310.890625 80.246094 312.199219 C 81.371094 307.066406 82.066406 301.878906 82.332031 296.632812 C 82.839844 285.230469 81.269531 273.902344 80.214844 262.578125 C 79.046875 245.808594 79.632812 228.960938 77.523438 212.246094 C 76.195312 195.179688 74.839844 180.4375 80.949219 164.949219 C 81.390625 163.855469 83.714844 159.765625 85.5 158.429688 C 87.6875 156.667969 89.972656 155.054688 92.363281 153.582031 C 92.4375 153.769531 92.546875 153.9375 92.683594 154.089844 C 95.945312 156.519531 100.546875 154.335938 103.679688 152.640625 C 106.082031 152.507812 106.433594 157.550781 110.160156 158.714844 C 112.503906 159.644531 115.210938 158.6875 117.261719 158.476562 C 119.113281 158.582031 120.957031 158.96875 122.804688 158.546875 C 124.589844 158.363281 126.222656 157.5625 127.964844 157.175781 C 128.722656 157.109375 134.738281 156.554688 137.742188 155.332031 C 139.695312 154.683594 141.679688 154.550781 143.703125 154.9375 C 146.421875 155.464844 149.128906 155.410156 151.824219 154.773438 C 153.226562 154.253906 154.671875 154.0625 156.164062 154.199219 C 164.003906 155.226562 168.566406 157.554688 173.785156 147.402344 C 174.492188 145.890625 173.597656 147.449219 173.054688 147.988281 C 171.589844 149.734375 169.84375 151.125 167.8125 152.160156 C 165.523438 153.492188 161.570312 151.699219 158.785156 150.832031 C 154.507812 149.234375 151.78125 150.425781 148.351562 150.339844 C 145.941406 150.28125 143.507812 149.203125 140.90625 149.183594 C 138.230469 149.132812 135.65625 149.949219 133.074219 150.535156 C 130.945312 151.0625 130.039062 150.871094 126.652344 151.453125 C 124.714844 151.871094 122.945312 152.847656 120.96875 153.113281 C 119.449219 153.15625 115.953125 152.820312 113.894531 153.804688 C 113.136719 154.066406 112.363281 154.152344 111.566406 154.0625 C 110.847656 153.953125 109.738281 152.007812 108.714844 151.054688 C 106.910156 149.101562 103.796875 147.9375 101.542969 149.839844 C 99.488281 151.300781 97.269531 153.496094 93.789062 152.832031 C 93.265625 150.632812 93.523438 148.261719 93.230469 146.011719 C 92.921875 147.917969 92.574219 149.820312 92.269531 151.730469 C 92.15625 152.292969 92.171875 152.851562 92.316406 153.410156 C 89.40625 154.636719 86.421875 155.742188 83.785156 157.492188 C 81.214844 159.410156 79.140625 161.761719 77.5625 164.546875 C 68.945312 179.90625 69.058594 197.964844 69.4375 215.078125 C 70.34375 236 70.207031 257.121094 75.355469 277.566406 C 78.132812 289.851562 79.40625 300.929688 78.878906 313.453125 C 68.679688 322.8125 59.402344 333.003906 51.042969 344.035156 C 70.003906 325.792969 90.886719 308.597656 113.371094 301.671875 C 132.984375 295.492188 155.9375 293.191406 171.910156 295.6875 C 183.164062 297.644531 194.15625 300.972656 205.011719 304.488281 C 216.09375 308.0625 223.8125 312.363281 235.746094 319.542969 C 252.820312 329.9375 272.0625 351.304688 288.226562 372.085938 C 288.96875 373.03125 289.707031 373.976562 290.449219 374.921875 C 280.652344 355.839844 269.042969 337.476562 254.003906 322.066406 Z M 254.003906 322.066406"/></g><g clip-path="url(#b)"><path d="M 319.300781 42.09375 C 317.773438 39.464844 315.957031 37.054688 313.847656 34.867188 C 311.734375 32.679688 309.394531 30.773438 306.820312 29.152344 C 301.363281 25.335938 294.5 23.453125 287.992188 25.480469 C 286.796875 25.644531 279.007812 28.695312 282.0625 27.90625 C 286.65625 27.03125 291.648438 26.339844 296.3125 28.175781 C 305.839844 32.78125 312.5 42.476562 314.574219 53.222656 C 314.859375 55.066406 314.8125 56.90625 314.441406 58.734375 C 314.070312 60.566406 313.394531 62.273438 312.414062 63.863281 C 311.25 65.726562 309.867188 67.414062 308.265625 68.921875 C 306.667969 70.429688 304.90625 71.710938 302.976562 72.765625 C 301.046875 73.824219 299.019531 74.617188 296.886719 75.152344 C 294.753906 75.6875 292.589844 75.945312 290.390625 75.921875 C 281.597656 75.527344 273.050781 73.066406 266.695312 65.691406 C 264.296875 62.546875 260.578125 54.179688 261.980469 48.988281 C 264.148438 39.226562 273.433594 34.617188 283.171875 35.53125 C 272.835938 32.113281 261.230469 36.320312 256.917969 46.636719 C 253.925781 53.675781 255.671875 61.941406 258.867188 68.617188 C 268.785156 86.847656 296.734375 93.144531 312.734375 79.289062 C 324.714844 69.878906 327.621094 55.003906 319.300781 42.09375 Z M 319.300781 42.09375"/></g></svg>