<svg xmlns="http://www.w3.org/2000/svg" width="375" height="375" version="1.0"><defs><clipPath id="a"><path d="M51.043 146H291v229H51.043Zm0 0"/></clipPath><clipPath id="b"><path d="M255 24h69.043v63H255Zm0 0"/></clipPath></defs><path fill="#A2D2FF" d="M315.707 59.945c-.965 3.813-4.227 6.754-7.91 8.137-3.684 1.383-7.742 1.398-11.649.945-4.898-.574-9.796-1.894-13.921-4.601-4.122-2.707-7.403-6.918-8.262-11.774-.856-4.855 1.031-10.277 5.152-12.98l-2.578-.875c-6.281-2.645-13.969-.176-18.547 4.871-4.582 5.047-6.355 12.172-6.094 18.98.262 6.813 2.375 13.41 4.75 19.797 1.563 4.2 3.477 8.633 7.293 10.98 3.383 2.083 7.614 2.102 11.575 1.805 9.996-.746 20.16-3.253 28.164-9.285 8.004-6.03 13.457-16.082 12.027-26ZM151.691 165.082l-25.742 5.203c-7.394 36.012-14.793 72.024-22.187 108.035 45.68 30.977 65.008-92.933 47.93-113.238Zm0 0"/><path fill="#FFF" d="M117.96 1.152c-3.015 2.313-4.772 5.868-6.976 8.895-3.37 5-6.425 10.187-9.168 15.558a218.946 218.946 0 0 0-15.074 38.606c-5.746 3.836-11.508 8.055-14.644 14.394a48.211 48.211 0 0 0-4.903 23.56 47.962 47.962 0 0 0 1.055 8.026 53.612 53.612 0 0 0 3.64 12.723 53.943 53.943 0 0 0 6.63 11.457c3.652 5.059 8.425 9.121 13.57 12.598a132.375 132.375 0 0 1-3.887-4.348c-5.012-5.434-9.394-14.742-10.879-18.945-3.004-9.617-3.328-15.528-4.043-22.172-.492-9.043.598-14.79 2.903-22.18 1.617-4.816 6.066-10.05 10.445-14.722-.055.203-.121.402-.176.605.172-.328.348-.648.52-.977.152-.156.3-.32.449-.476-.102.066-.2.137-.3.203a563.626 563.626 0 0 1 32.155-53.285c-.027 16.781-1.75 34.797-1.523 51.906 1.98-10.816 3.754-21.672 5.45-32.535 1.14-7.828 2.648-15.7 2.448-23.64.309-4.544-3.465-8.231-7.691-5.25ZM207.102 38.66c-.868-7.281-.844-14.898-3.395-21.84-1.105-3.343-4.828-5.722-8.102-3.668-2.015 1.278-3.078 3.489-4.156 5.536-1.687 3.234-3.277 6.515-4.847 9.804-4.325 9.02-8.91 17.992-12.055 27.48.027-.296.058-.593.09-.89.41-4.164.406-8.484-1.172-12.422-6.149-17.629-23.211-17.055-37.375-9.398-5.684 3.394-10.227 8.347-14.785 13.074 7.386-4.719 14.613-10.215 23.437-11.809 12.035-3.21 21.219-1.004 26.89 10.559 1.817 3.367 2.345 7.246 2.884 10.984a81.964 81.964 0 0 0-2.387 8.653c7.117-13.899 17.184-25.957 24.668-39.637.289-.488.566-.98.851-1.473 2.391 12.938 4.68 25.89 7.649 38.715 1.094 4.988 2.137 9.988 3.266 14.969.007-.469.019-.938.027-1.406a316.751 316.751 0 0 0-1.488-37.23Zm0 0"/><path fill="#FFF" d="M209.883 73.43c2.496 6.086 3.812 11.578 3.808 17.41.067 5.293.149 7.676-1.027 12.074-1.625 6.156-5.512 11.375-8.098 14.625.043-.059.22-.285.485-.629-4.348 5.317-9.238 9.848-14.188 14.246-4.32 3.692-10.254 8.246-13.644 10.91a70.58 70.58 0 0 1-5.078 3.504c6.238-1.734 12.015-4.765 17.754-7.703 14.203-7.656 28.484-20.355 28.726-37.656-.023-9.566-2.832-19.18-8.738-26.781ZM113.074 70.484c-8.351.207-8.328 12.438 0 12.668 8.352-.207 8.332-12.437 0-12.668ZM173.094 74.355c-8.352.207-8.328 12.438 0 12.668 8.351-.207 8.332-12.437 0-12.668ZM141.934 100.602a42.66 42.66 0 0 0-7.266-.504c2.492.687 4.992 1.379 7.426 2.246.004-.055.074.004.16.074-1.766 2.07-4.336 4.5-6.387 6.66-.699.742-1.457 1.418-2.27 2.035-1.12-4.105-1.581-8.761-2.613-13.004-.183 3.977-.277 7.961-.062 11.938-.027 3.836 2.05 5.2 5.078 2.508a50.518 50.518 0 0 0 7.418-8.47c1.574-1.835.828-3.214-1.484-3.483ZM139.082 122.656a17.834 17.834 0 0 1-8.832-1.054c-3.172-1.282-6.727-4.305-9.914-6.559 2.602 3.152 5.285 6.57 9.113 8.266a13.664 13.664 0 0 0 5.715.941c1.973-.098 3.84-.59 5.602-1.488.52-.274 1.02-.582 1.496-.93a15.17 15.17 0 0 1-3.18.824ZM315.625 197.352c-3.82-22.036-12.191-44.961-30.176-59.313a65.668 65.668 0 0 0-9.488-6.402c-2.149-1.282-4.563-2.64-7.14-2.032a5.426 5.426 0 0 0-3.864 3.73 5.4 5.4 0 0 0-.215 1.852c.024 2.086 1.309 3.891 2.383 5.594 11.418 16.024 18.332 25.239 22.156 40.52 2.64 9.449 1.051 18.531-4.082 27.785-4.074 7.223-7.308 11.918-13.676 17.223-1.753 1.609-7.62 4.379-10.601 6.59a20.224 20.224 0 0 0-2.969 3.066 30.555 30.555 0 0 0-3.808-6.988 51.91 51.91 0 0 0-5.774-6.579 52.027 52.027 0 0 0-22.656-12.785c-10.172-2.648-18.024-.836-24.793-5.343-2.914-2.583-4.305-5.122-6.567-9.997-3.132-6.507-6.27-15.523-8.699-24.324-1.41-4.402-2.703-9.023-5.43-12.816-2.078-2.61-5.273-3.883-8.148-5.395 2.375 1.73 4.895 3.145 6.64 5.54 2.114 3.304 2.673 7.35 3.481 11.124 1.492 9.422 3.203 18.832 6.352 27.86 1.422 4.242 3.008 8.523 5.933 11.98 6.91 8.602 19.012 7.39 28.633 10.336a45.606 45.606 0 0 1 24.192 17.676c4.132 6.574 6.847 19.273 8.855 30.289 2.492 13.82 1.45 34.273-1.914 49.863-.188.832-.395 1.66-.613 2.485l.34-.75a137.733 137.733 0 0 0 8.77-31.746c2.003-13.81.85-27.946-2.102-41.536a64.743 64.743 0 0 0-2.489-8.398 20.122 20.122 0 0 1 3.578-2.766c3.793-1.968 8.047-2.941 11.704-5.203 8.917-5.449 15.972-13.695 20.867-22.867 6.125-10.578 5.28-23.441 1.664-34.719a76.723 76.723 0 0 0-5.742-14.054c9.046 12.847 14.52 30.402 17.402 46.156 1.023 6.758 2.144 17.105.703 23.578-2.883 13.883-9.144 23.277-20.5 33.14-4.598 3.919-13.57 7.7-21.344 8.118 4.086.336 8.121.027 12.11-.918a38.657 38.657 0 0 0 11.226-4.621c13.063-8.336 23.008-21.578 26.168-36.852 1.805-9.273.93-18.816-.367-28.101ZM167.3 219.73a269.027 269.027 0 0 0-4.327 56.016c4.28-18.34 5.445-37.242 4.328-56.016Zm0 0"/><g clip-path="url(#a)"><path fill="#FFF" d="M254.004 322.066c-9.992-10.03-22.176-17.683-34.742-24.086-7.325-3.355-15.016-5.773-22.762-7.968a41.61 41.61 0 0 0-5.887-5.606 22.577 22.577 0 0 1-3.652-4.16 9.253 9.253 0 0 1-1.824-4.254c-1.594-6.984.508-18.398 5.082-23.258 11.777-12.406 13.293.133 12.129-23.039-.97 4.18-1.125 8.676-2.778 12.645-.168.273-.586.394-1.238.57-6.039.977-12.191 5.906-14.703 9.828a30 30 0 0 0-3.027 6.328 30.007 30.007 0 0 0-1.485 6.852c-.23 2.34-.183 4.676.133 7.008a29.995 29.995 0 0 0 1.746 6.793c1.82 3.57 4.965 6.207 8.344 8.3-14.942-4.507-30.606-5.37-45.98-3.43.75-10.925 1.636-21.835 2.738-32.734.742-11.93 1.023-23.886 1.238-35.835-6.043 22.316-9.156 45.816-5.082 68.707a134.471 134.471 0 0 0-16.48 3.3 106.719 106.719 0 0 0-13.516 4.383 182.594 182.594 0 0 0 2.699-41.648c-.598-11.18-1.965-22.352-5.496-33.02 1.383 13.051.5 26.153.691 39.242-.062 11.95.895 23.864 1.168 35.801a107.123 107.123 0 0 0-26.64 15.567 187.11 187.11 0 0 0-4.434 3.847 95.018 95.018 0 0 0 2.086-15.566c.508-11.403-1.062-22.73-2.117-34.055-1.168-16.77-.582-33.617-2.692-50.332-1.328-17.066-2.683-31.809 3.426-47.297.442-1.094 2.766-5.183 4.551-6.52a66.682 66.682 0 0 1 6.863-4.847c.075.188.184.356.32.508 3.262 2.43 7.864.246 10.997-1.45 2.402-.132 2.754 4.91 6.48 6.075 2.344.93 5.05-.028 7.102-.238 1.851.105 3.695.492 5.543.07 1.785-.184 3.418-.984 5.16-1.371.758-.067 6.773-.621 9.777-1.844a11.66 11.66 0 0 1 5.961-.394c2.719.527 5.426.472 8.121-.165a9.768 9.768 0 0 1 4.34-.574c7.84 1.028 12.402 3.356 17.621-6.797.707-1.511-.187.047-.73.586a16.63 16.63 0 0 1-5.243 4.172c-2.289 1.332-6.242-.46-9.027-1.328-4.277-1.598-7.004-.406-10.433-.492-2.41-.059-4.844-1.137-7.446-1.156-2.676-.051-5.25.765-7.832 1.351-2.129.528-3.035.336-6.422.918-1.937.418-3.707 1.395-5.683 1.66-1.52.043-5.016-.293-7.074.692a5.237 5.237 0 0 1-2.329.257c-.718-.109-1.828-2.054-2.851-3.007-1.805-1.953-4.918-3.118-7.172-1.215-2.055 1.46-4.273 3.656-7.754 2.992-.523-2.2-.266-4.57-.559-6.82-.308 1.906-.656 3.808-.96 5.718a3.699 3.699 0 0 0 .046 1.68c-2.91 1.227-5.894 2.332-8.53 4.082a22.632 22.632 0 0 0-6.224 7.055c-8.617 15.36-8.503 33.418-8.124 50.531.906 20.922.769 42.043 5.917 62.488 2.778 12.286 4.051 23.364 3.524 35.887a229.764 229.764 0 0 0-27.836 30.582c18.96-18.242 39.844-35.437 62.328-42.363 19.613-6.18 42.567-8.48 58.54-5.985 11.253 1.958 22.245 5.286 33.1 8.801 11.083 3.575 18.802 7.875 30.735 15.055 17.074 10.394 36.316 31.762 52.48 52.543.743.945 1.481 1.89 2.223 2.836-9.797-19.082-21.406-37.445-36.445-52.856Zm0 0"/></g><g clip-path="url(#b)"><path fill="#FFF" d="M319.3 42.094a37.537 37.537 0 0 0-12.48-12.942c-5.457-3.816-12.32-5.699-18.828-3.672-1.195.165-8.984 3.215-5.93 2.426 4.594-.875 9.586-1.566 14.25.27 9.528 4.605 16.188 14.3 18.262 25.047a15.558 15.558 0 0 1-.133 5.511 15.584 15.584 0 0 1-2.027 5.13 25.414 25.414 0 0 1-4.148 5.058 25.472 25.472 0 0 1-5.29 3.844 25.505 25.505 0 0 1-6.09 2.386 25.462 25.462 0 0 1-6.495.77c-8.793-.395-17.34-2.856-23.696-10.23-2.398-3.145-6.117-11.512-4.715-16.704 2.168-9.761 11.454-14.37 21.192-13.457-10.336-3.418-21.942.79-26.254 11.106-2.992 7.039-1.246 15.304 1.95 21.98 9.917 18.23 37.866 24.528 53.866 10.672 11.98-9.41 14.887-24.285 6.567-37.195Zm0 0"/></g></svg>