<svg xmlns="http://www.w3.org/2000/svg" width="375" height="375" version="1.0"><path fill="#BEE1E6" d="M268.102 143.086c-41.985-19.953-84.84 28.941-104.82 70.867-12.637 26.52-16.18 52.961-6.462 73.863-10.55-4.378-21.902-12.836-32.738-28.722-36.898-54.117-58.965-5.957-13.695 36.324 18.394 17.18 42.691 16.703 61.199 11.652 4.613 3.946 10.05 7.473 16.406 10.493 41.988 19.949 99.653-16.72 108.524-62.297 10.636-54.657 13.57-92.23-28.414-112.18Zm0 0"/><path fill="#2D1D05" d="M152.047 284.18c0 .332-.067.648-.192.953a2.446 2.446 0 0 1-.539.808c-.234.23-.504.41-.808.54a2.517 2.517 0 0 1-1.91 0 2.572 2.572 0 0 1-.809-.54 2.507 2.507 0 0 1-.73-1.761 2.501 2.501 0 0 1 1.539-2.301 2.517 2.517 0 0 1 1.91 0 2.518 2.518 0 0 1 1.347 1.348c.125.304.192.625.192.953Zm-17.234-8.258c-4.497-4.375-8.762-9.52-12.79-15.426-8.32-12.203-15.949-19.594-22.882-22.172-5.09-1.89-8.563-.64-10.422 3.75-2.23 5.27-1.617 12.38 1.847 21.324 4.079 10.543 11.254 20.61 21.524 30.2 8.05 7.52 17.777 12.023 29.176 13.515 9.336 1.223 19.222.407 29.66-2.441.398-.11.8-.117 1.203-.027.402.09.762.27 1.078.535 2.563 2.195 5.363 4.222 8.39 6.09a2.49 2.49 0 0 1 1.152 2.516 2.49 2.49 0 0 1-1 1.621c-.269.19-.561.327-.886.402-.32.078-.644.09-.968.035a2.46 2.46 0 0 1-.915-.336 71.728 71.728 0 0 1-9.015-6.547l1.62-1.89.657 2.402c-11.086 3.023-21.625 3.882-31.62 2.578-12.462-1.633-23.11-6.57-31.938-14.817-10.825-10.109-18.414-20.793-22.77-32.043-3.945-10.199-4.543-18.546-1.789-25.054 1.418-3.344 3.598-5.606 6.543-6.79 3.004-1.206 6.406-1.1 10.21.313 7.927 2.945 16.349 10.957 25.267 24.031 3.84 5.637 7.89 10.524 12.148 14.664a2.494 2.494 0 0 1 .754 1.75c.004.332-.055.649-.18.957a2.43 2.43 0 0 1-.527.813c-.23.238-.5.422-.8.55a2.573 2.573 0 0 1-.954.204 2.437 2.437 0 0 1-.957-.18 2.486 2.486 0 0 1-.816-.527Zm63.035 44.52c0 .331-.063.648-.188.953a2.518 2.518 0 0 1-.543.808c-.23.235-.5.414-.808.54a2.486 2.486 0 0 1-.954.19 2.501 2.501 0 0 1-2.492-2.492c0-.328.063-.644.192-.949.125-.308.304-.574.539-.808.234-.235.504-.414.808-.54a2.43 2.43 0 0 1 .953-.19c.333 0 .649.062.954.19.308.126.578.305.808.54a2.477 2.477 0 0 1 .73 1.757Zm13.925.175c8.852.23 17.872-1.36 27.063-4.77 8.91-3.308 17.246-8.046 25.012-14.214 7.797-6.195 14.304-13.266 19.515-21.211 5.418-8.262 8.989-16.805 10.707-25.629 4.23-21.738 6.457-38.473 6.688-50.203.297-15.211-2.29-27.512-7.758-36.899a2.461 2.461 0 0 1-.254-1.887c.082-.316.227-.609.426-.87a2.464 2.464 0 0 1 1.648-.957 2.482 2.482 0 0 1 2.488 1.215c5.938 10.187 8.747 23.351 8.434 39.492-.234 12.02-2.496 29.039-6.781 51.058-1.84 9.465-5.649 18.602-11.426 27.406-5.508 8.395-12.367 15.852-20.586 22.38-8.18 6.495-16.972 11.492-26.379 14.984-9.789 3.636-19.433 5.332-28.925 5.082a2.405 2.405 0 0 1-.95-.215c-.3-.133-.566-.32-.793-.559a2.382 2.382 0 0 1-.52-.82 2.435 2.435 0 0 1-.163-.957c.008-.332.078-.648.215-.95.132-.3.32-.566.558-.792.242-.227.516-.399.824-.52.309-.117.63-.172.957-.164Zm75.36-166.887c0 .333-.063.649-.188.954a2.518 2.518 0 0 1-.543.808 2.483 2.483 0 0 1-1.762.727 2.497 2.497 0 0 1-1.761-.727 2.446 2.446 0 0 1-.54-.808 2.416 2.416 0 0 1-.19-.954c0-.328.062-.644.19-.953a2.43 2.43 0 0 1 .54-.804c.234-.235.504-.414.808-.54a2.43 2.43 0 0 1 .954-.19c.332 0 .648.062.953.19.308.126.578.305.808.54.235.234.414.5.543.804.125.309.188.625.188.953Zm-17.363-7.039c-.891-.46-1.805-.914-2.739-1.359-18.215-8.656-37.554-4.684-58.02 11.914-8.652 7.016-16.921 15.887-24.816 26.613a191.13 191.13 0 0 0-18.66 31.16c-11.629 24.403-14.73 45.801-9.3 64.2a2.462 2.462 0 0 1-.2 1.894 2.5 2.5 0 0 1-4.129.375 2.508 2.508 0 0 1-.453-.863c-5.789-19.613-2.594-42.195 9.578-67.742a196.254 196.254 0 0 1 19.145-31.973c8.148-11.066 16.71-20.246 25.691-27.527 22.098-17.918 43.196-22.102 63.305-12.547.988.469 1.957.95 2.898 1.441.293.153.547.356.758.61.215.25.371.535.469.851.101.313.137.633.105.965a2.43 2.43 0 0 1-.27.93 2.494 2.494 0 0 1-2.43 1.332 2.454 2.454 0 0 1-.932-.274Zm0 0"/><path stroke-linecap="round" transform="matrix(.83084 0 0 .82965 19.01 5.642)" fill="#BEE1E6" stroke-linejoin="round" d="m160.034 320.227-3.432-39.635c.85-10.655 10.268-18.673 20.922-17.816 10.654.857 18.67 10.269 17.814 20.923l.066 26.546M234.507 320.227l-12.666-40.67c-3.178-10.209 2.567-21.155 12.774-24.334 10.203-3.178 21.153 2.571 24.33 12.774l12.667 40.676" stroke="#2D1D05" stroke-width="6" stroke-miterlimit="10"/><path fill="#FAD2E1" d="M248.055 43.117 209.3 75.762c-5.48 4.613-3.903 13.422 2.84 15.851l47.687 17.192c6.742 2.43 13.59-3.336 12.328-10.383l-8.933-49.836c-1.262-7.043-9.692-10.082-15.168-5.469Zm0 0"/><path fill="#2D1D05" d="m249.66 45.02-38.754 32.644c-2.004 1.688-2.777 3.824-2.316 6.402.465 2.582 1.93 4.317 4.398 5.207l47.684 17.192c2.469.89 4.707.488 6.715-1.2 2.004-1.69 2.777-3.824 2.316-6.406l-8.933-49.832c-.403-2.242-1.614-3.867-3.637-4.882-1.996-.997-3.98-1.032-5.95-.106-.3.14-.617.219-.945.238a2.5 2.5 0 0 1-2.375-1.425 2.459 2.459 0 0 1-.234-.942 2.428 2.428 0 0 1 .144-.96c.11-.313.278-.59.5-.833.223-.246.48-.437.782-.578 3.433-1.617 6.867-1.566 10.308.156 3.516 1.758 5.617 4.575 6.313 8.453l8.933 49.832c.801 4.47-.535 8.165-4.007 11.09-3.473 2.926-7.348 3.618-11.622 2.075l-47.683-17.192c-4.274-1.539-6.813-4.543-7.613-9.008-.801-4.468.535-8.164 4.011-11.086l38.75-32.644c.254-.211.54-.367.852-.469.316-.098.637-.137.969-.11a2.484 2.484 0 0 1 1.691.875 2.45 2.45 0 0 1 .578 1.816c-.027.33-.117.642-.27.935a2.427 2.427 0 0 1-.605.758Zm0 0"/><path fill="#FAD2E1" d="m125.875 80.863 50.441 5.086c7.133.719 10.809 8.88 6.618 14.688L153.3 141.715c-4.188 5.805-13.106 4.906-16.047-1.621L116.445 93.93c-2.941-6.528 2.297-13.79 9.43-13.067Zm0 0"/><path fill="#2D1D05" d="m126.125 78.387 50.441 5.086c4.52.457 7.715 2.754 9.579 6.89 1.863 4.137 1.468 8.047-1.188 11.727l-29.633 41.078c-2.656 3.68-6.242 5.293-10.765 4.836-4.52-.453-7.711-2.75-9.579-6.887l-20.804-46.164c-1.625-3.605-1.477-7.125.441-10.558 1.88-3.372 4.7-5.348 8.461-5.93a2.476 2.476 0 0 1 1.852.45c.27.19.488.429.66.714a2.452 2.452 0 0 1 .293 1.879 2.492 2.492 0 0 1-2.04 1.875c-2.16.336-3.78 1.48-4.874 3.433-1.106 1.98-1.188 4.012-.25 6.094l20.808 46.164c1.078 2.39 2.922 3.715 5.536 3.98 2.609.262 4.683-.667 6.218-2.796l29.633-41.078c1.535-2.125 1.762-4.383.684-6.774-1.078-2.39-2.922-3.719-5.532-3.98l-50.441-5.09a2.426 2.426 0 0 1-.93-.281 2.443 2.443 0 0 1-.75-.618 2.436 2.436 0 0 1-.457-.859 2.457 2.457 0 0 1 .192-1.894c.156-.293.363-.543.617-.75a2.462 2.462 0 0 1 1.828-.547Zm0 0"/><path fill="#BEE1E6" d="M283.055 123.191c11.953 38.582-17.207 55.227-55.844 67.164-38.637 11.934-72.117 14.641-84.07-23.94-11.953-38.583 9.68-79.536 48.316-91.47 38.637-11.933 79.648 9.664 91.598 48.246Zm0 0"/><path fill="#2D1D05" d="M155.059 103.648c0 .329-.063.645-.192.95a2.446 2.446 0 0 1-.539.808 2.446 2.446 0 0 1-.808.54 2.415 2.415 0 0 1-.954.19c-.332 0-.648-.062-.953-.19a2.446 2.446 0 0 1-.808-.54 2.478 2.478 0 0 1-.73-1.758c0-.332.062-.648.187-.953.129-.304.308-.574.543-.808a2.486 2.486 0 0 1 1.762-.73c.331 0 .648.066.953.19.304.126.574.305.808.54.234.234.414.504.54.808.128.305.19.621.19.953Zm6.64-14.39c8.371-7.738 18.043-13.301 29.02-16.692 9.812-3.03 19.785-4.035 29.918-3.02 9.789.981 19.05 3.774 27.789 8.376 8.738 4.605 16.277 10.66 22.613 18.172 6.566 7.777 11.363 16.566 14.399 26.363 5.796 18.707 2.601 34.066-9.583 46.078-9.253 9.125-25.222 17.188-47.906 24.2-22.687 7.007-40.43 9.355-53.222 7.042-16.848-3.043-28.172-13.918-33.97-32.629-5.202-16.804-4.616-33.386 1.763-49.746a2.515 2.515 0 0 1 1.32-1.375c.305-.132.62-.199.95-.207.331-.007.648.047.956.168.309.121.582.293.82.524.239.226.426.492.559.793.133.304.203.62.21.949.005.332-.05.648-.17.957-5.958 15.277-6.505 30.766-1.642 46.469 5.2 16.78 15.227 26.515 30.09 29.199 11.996 2.168 28.95-.133 50.86-6.902 21.914-6.77 37.207-14.43 45.879-22.985 10.75-10.594 13.523-24.281 8.324-41.066-5.774-18.633-17.297-32.5-34.574-41.598-17.278-9.101-35.247-10.77-53.91-5.004-10.255 3.168-19.29 8.364-27.11 15.586a2.506 2.506 0 0 1-2.734.434 2.416 2.416 0 0 1-.785-.57 2.42 2.42 0 0 1-.508-.829 2.429 2.429 0 0 1-.157-.957c.016-.332.09-.644.227-.945.14-.3.332-.563.574-.785Zm0 0"/><path fill="#2D1D05" d="M209.035 158.676c1.13 3.652-4.695 1.453-10.488 3.242-5.793 1.789-9.36 6.89-10.488 3.238-1.133-3.652 2.648-8.062 8.441-9.851 5.79-1.79 11.402-.282 12.535 3.37Zm0 0"/><path stroke-linecap="round" transform="matrix(.83084 0 0 .82965 19.01 5.642)" fill="none" stroke-linejoin="round" d="m299.807 145.797 38.295-11.846M303.63 158.152l38.294-11.851M307.447 170.502l38.3-11.846M125.106 199.844l38.294-11.846M128.924 212.194l38.299-11.846M132.746 224.549l38.3-11.846" stroke="#2D1D05" stroke-width="6" stroke-miterlimit="10"/><path fill="#2D1D05" d="M172.016 143.27c.257.828.48 1.664.664 2.496.187.836.336 1.656.445 2.464.11.81.176 1.586.203 2.336a16.99 16.99 0 0 1-.043 2.114 11.36 11.36 0 0 1-.289 1.812 6.609 6.609 0 0 1-.52 1.442c-.214.414-.46.754-.738 1.015-.281.266-.59.45-.925.555a2.351 2.351 0 0 1-1.075.062 3.671 3.671 0 0 1-1.183-.421 6.714 6.714 0 0 1-1.246-.895 11.67 11.67 0 0 1-1.266-1.336 17.9 17.9 0 0 1-1.23-1.719 23.327 23.327 0 0 1-1.149-2.043 28.37 28.37 0 0 1-1.027-2.28 32.39 32.39 0 0 1-1.531-4.938 30.639 30.639 0 0 1-.442-2.465c-.11-.805-.18-1.582-.207-2.332-.027-.75-.012-1.453.043-2.114.059-.66.152-1.265.29-1.812.136-.55.312-1.031.523-1.445.214-.414.46-.75.738-1.016.281-.266.59-.45.926-.55a2.347 2.347 0 0 1 1.074-.067c.379.058.773.203 1.183.422.407.222.825.523 1.246.898.422.375.844.82 1.262 1.332.422.516.832 1.09 1.235 1.723a24.93 24.93 0 0 1 1.148 2.039c.367.726.71 1.488 1.027 2.285.317.793.606 1.606.864 2.438ZM218.48 128.914c.258.832.48 1.664.665 2.5.187.836.335 1.656.445 2.465.11.805.176 1.586.203 2.332.027.75.016 1.453-.043 2.113a11.412 11.412 0 0 1-.29 1.817 6.607 6.607 0 0 1-.523 1.441c-.21.414-.457.754-.734 1.016a2.32 2.32 0 0 1-.926.55 2.298 2.298 0 0 1-1.074.067 3.671 3.671 0 0 1-1.183-.422 6.568 6.568 0 0 1-1.247-.898 11.288 11.288 0 0 1-1.265-1.333 18.404 18.404 0 0 1-1.23-1.718 23.91 23.91 0 0 1-1.15-2.043 27.855 27.855 0 0 1-1.026-2.285 30.99 30.99 0 0 1-.864-2.438 32.299 32.299 0 0 1-.668-2.496 29.006 29.006 0 0 1-.441-2.465c-.11-.808-.18-1.586-.207-2.332-.027-.75-.012-1.453.043-2.117.058-.66.152-1.262.289-1.813a6.816 6.816 0 0 1 .523-1.44c.211-.415.457-.755.739-1.017.28-.265.586-.449.922-.554.34-.102.695-.125 1.078-.063.379.059.773.2 1.183.422.406.223.824.52 1.246.895.422.375.844.82 1.262 1.336.422.511.832 1.086 1.23 1.718.403.633.786 1.313 1.153 2.043.367.727.707 1.489 1.027 2.282.317.796.606 1.609.863 2.437Zm0 0"/><path stroke-linecap="round" transform="matrix(.83084 0 0 .82965 19.01 5.642)" fill="#BEE1E6" stroke-linejoin="round" d="M218.794 93.831c-9.135-11.559-17.8-15.735-24.542-17.195-3.916-.847-6.596-.654-6.756-1.615-.442-2.67 18.548-13.682 32.887-6.007 7.626 4.082 10.706 11.719 11.722 14.675M194.788 99.335c-5.971-7.462-11.608-10.141-15.99-11.064-2.544-.532-4.283-.396-4.391-1.022-.297-1.728 11.984-8.946 21.317-4.02 4.965 2.617 6.996 7.56 7.663 9.477M192.607 213.79l58.75-18.174M199.137 211.77l6.394 5.867 1.843-8.414ZM237.464 199.91l6.4 5.871 1.838-8.418Zm0 0" stroke="#2D1D05" stroke-width="6" stroke-miterlimit="10"/><path transform="matrix(.83084 0 0 .82965 19.01 5.642)" fill="#7F898A" d="M243.285 229.233a36.973 36.973 0 0 1-1.585 10.679 37.46 37.46 0 0 1-1.217 3.4 37.563 37.563 0 0 1-1.542 3.262 37.464 37.464 0 0 1-1.857 3.098 37.009 37.009 0 0 1-7.25 8 36.677 36.677 0 0 1-9.262 5.551 36.502 36.502 0 0 1-3.4 1.215 35.947 35.947 0 0 1-3.502.88c-1.185.236-2.375.41-3.574.527a36.91 36.91 0 0 1-3.606.18 36.91 36.91 0 0 1-3.606-.18 35.856 35.856 0 0 1-7.071-1.408 36.113 36.113 0 0 1-3.404-1.214 36.836 36.836 0 0 1-14.359-10.65 35.803 35.803 0 0 1-2.148-2.9 36.209 36.209 0 0 1-1.857-3.099 36.272 36.272 0 0 1-2.76-6.662 35.992 35.992 0 0 1-.88-3.503 38.194 38.194 0 0 1-.53-3.569 36.967 36.967 0 0 1-.175-3.607c0-1.205.057-2.41.174-3.606.123-1.2.297-2.392.532-3.574.235-1.182.526-2.35.879-3.503a36.534 36.534 0 0 1 1.213-3.4c.46-1.11.978-2.198 1.547-3.262a36.208 36.208 0 0 1 1.857-3.098 36.648 36.648 0 0 1 4.574-5.575 37.33 37.33 0 0 1 2.676-2.425 37.293 37.293 0 0 1 2.9-2.151 37.338 37.338 0 0 1 3.094-1.855 38.212 38.212 0 0 1 3.263-1.545 37.236 37.236 0 0 1 10.475-2.623 36.91 36.91 0 0 1 3.606-.178 36.91 36.91 0 0 1 14.082 2.801 37.422 37.422 0 0 1 6.361 3.4 39.172 39.172 0 0 1 2.9 2.151 38.37 38.37 0 0 1 2.676 2.425 37.17 37.17 0 0 1 4.575 5.575 37.464 37.464 0 0 1 1.857 3.098 38.227 38.227 0 0 1 1.542 3.263c.46 1.116.865 2.246 1.217 3.4a37.378 37.378 0 0 1 1.406 7.076 36.9 36.9 0 0 1 .179 3.606Zm0 0" stroke="#2D1D05" stroke-width="6" stroke-miterlimit="10"/><path stroke-linecap="round" transform="matrix(.83084 0 0 .82965 19.01 5.642)" fill="#BEE1E6" stroke-linejoin="round" d="m290.522 253.119-42.587 1.22c-10.682.305-19.672-8.184-19.982-18.867-.306-10.683 8.185-19.676 18.867-19.982l42.587-1.22M184.619 239.7c0 .692-.029 1.38-.085 2.067a22.864 22.864 0 0 1-.25 2.043 24.472 24.472 0 0 1-.987 3.955 23 23 0 0 1-.733 1.87c-.268.607-.56 1.2-.875 1.775-.32.574-.658 1.125-1.02 1.662-.357.532-.743 1.04-1.142 1.53-.405.49-.828.951-1.27 1.389-.437.438-.893.847-1.368 1.234-.475.38-.964.734-1.467 1.064a16.23 16.23 0 0 1-3.15 1.577 14.864 14.864 0 0 1-3.343.81 14.816 14.816 0 0 1-3.413 0 14.942 14.942 0 0 1-3.343-.81 16.23 16.23 0 0 1-3.15-1.577c-.503-.33-.992-.683-1.467-1.064-.47-.387-.93-.796-1.368-1.234-.442-.438-.865-.9-1.265-1.389a20.58 20.58 0 0 1-2.167-3.192 23.013 23.013 0 0 1-.875-1.775 24.858 24.858 0 0 1-.733-1.87 24.472 24.472 0 0 1-.987-3.955 24.73 24.73 0 0 1-.25-2.043 25.23 25.23 0 0 1 0-4.134 24.73 24.73 0 0 1 .663-4.049c.165-.664.358-1.314.574-1.95.22-.635.465-1.261.733-1.868.268-.608.56-1.201.875-1.776a20.58 20.58 0 0 1 2.167-3.192c.4-.49.823-.95 1.265-1.389.437-.438.898-.847 1.368-1.233.475-.382.964-.735 1.467-1.064a16.23 16.23 0 0 1 3.15-1.578 14.942 14.942 0 0 1 3.343-.81 14.816 14.816 0 0 1 3.413 0 14.942 14.942 0 0 1 3.343.81c.546.198 1.082.429 1.608.697.527.264 1.04.556 1.542.88.503.33.992.683 1.467 1.065.475.386.931.795 1.368 1.233.442.438.865.9 1.27 1.39.4.489.785.997 1.142 1.53.362.536.7 1.087 1.02 1.661.315.575.607 1.168.875 1.776a23 23 0 0 1 1.307 3.818c.165.66.306 1.328.414 2.006.113.678.197 1.356.249 2.043.056.688.085 1.375.085 2.067Zm0 0" stroke="#2D1D05" stroke-width="6" stroke-miterlimit="10"/></svg>