<svg xmlns="http://www.w3.org/2000/svg" width="375" height="375" version="1.0"><path fill="#FFF" d="M-37.5-37.5h450v450h-450z"/><path fill="#FFF" d="M-37.5-37.5h450v450h-450z"/><path fill="#737373" d="M-37.5-37.5h450v450h-450z"/><path fill="#FFF" d="M187.5 3.125C83.953 3.125 0 87.078 0 190.625 0 278.485 60.5 352 142.063 372.344c-.875-2.531-1.438-5.469-1.438-9.11v-32.046h-23.563c-12.828 0-24.234-5.516-29.765-15.766-6.14-11.39-7.203-28.813-22.422-39.469-4.516-3.547-1.078-7.594 4.125-7.047 9.61 2.719 17.578 9.313 25.078 19.094 7.469 9.797 10.984 12.016 24.938 12.016 6.765 0 16.89-.391 26.421-1.891 5.125-13.016 13.985-25 24.813-30.656-62.438-6.422-92.234-37.485-92.234-79.656 0-18.157 7.734-35.72 20.875-50.516-4.313-14.688-9.735-44.64 1.656-56.047 28.094 0 45.078 18.219 49.156 23.14 14-4.796 29.375-7.515 45.531-7.515 16.188 0 31.625 2.719 45.657 7.547 4.03-4.89 21.03-23.172 49.187-23.172 11.438 11.422 5.953 41.5 1.594 56.156 13.062 14.766 20.75 32.281 20.75 50.406 0 42.141-29.75 73.188-92.094 79.641 17.156 8.953 29.672 34.11 29.672 53.063v42.718c0 1.625-.36 2.797-.547 4.188C322.516 341.812 375 272.437 375 190.625c0-103.547-83.953-187.5-187.5-187.5Zm0 0"/></svg>