<svg xmlns="http://www.w3.org/2000/svg" width="375" height="375" version="1.0"><defs><clipPath id="a"><path d="M65.156 0h244.5v375h-244.5Zm0 0"/></clipPath></defs><path fill="#FFF" d="M-37.5-37.5h450v450h-450z"/><path fill="#FFF" d="M-37.5-37.5h450v450h-450z"/><path fill="#B88D6F" d="M-37.5-37.5h450v450h-450z"/><g clip-path="url(#a)"><path fill="#FFF" d="M187.406 0c-36.992 0-68.535 15.555-89.75 40.316-21.21 24.758-32.437 58.16-32.437 94.196 0 36.035 11.226 69.437 32.437 94.195 21.215 24.758 52.758 40.316 89.75 40.316 36.914 0 68.395-15.503 89.606-40.171v40.171c0 21.184-6.668 38.836-19.969 51.684-13.297 12.844-34.09 21.684-65.563 21.684-62.851 0-85.535-33.153-85.535-65.215H73.363c0 49.453 42.489 97.824 118.117 97.824 37.766 0 67.887-11.23 88.188-30.84 20.305-19.613 29.926-46.797 29.926-75.137V8.153h-32.582v32.019C255.8 15.504 224.32 0 187.406 0Zm0 32.61c28.176 0 49.582 10.906 65.024 28.93 15.445 18.023 24.582 43.722 24.582 72.972 0 29.246-9.137 54.945-24.582 72.968-15.442 18.028-36.848 28.934-65.024 28.934-28.176 0-49.582-10.906-65.023-28.934-15.445-18.023-24.582-43.722-24.582-72.968 0-29.25 9.136-54.95 24.582-72.973 15.441-18.023 36.847-28.93 65.023-28.93Zm0 0"/></g></svg>