<svg xmlns="http://www.w3.org/2000/svg" width="375" viewBox="0 0 375 375" height="375" version="1.0"><defs><clipPath id="a"><path d="M 65.15625 0 L 309.65625 0 L 309.65625 375 L 65.15625 375 Z M 65.15625 0"/></clipPath></defs><path fill="#FFF" d="M-37.5 -37.5H412.5V412.5H-37.5z"/><path fill="#FFF" d="M-37.5 -37.5H412.5V412.5H-37.5z"/><path fill="#B88D6F" d="M-37.5 -37.5H412.5V412.5H-37.5z"/><g clip-path="url(#a)"><path fill="#FFF" d="M 187.40625 0 C 150.414062 0 118.871094 15.554688 97.65625 40.316406 C 76.445312 65.074219 65.21875 98.476562 65.21875 134.511719 C 65.21875 170.546875 76.445312 203.949219 97.65625 228.707031 C 118.871094 253.464844 150.414062 269.023438 187.40625 269.023438 C 224.320312 269.023438 255.800781 253.519531 277.011719 228.851562 L 277.011719 269.023438 C 277.011719 290.207031 270.34375 307.859375 257.042969 320.707031 C 243.746094 333.550781 222.953125 342.390625 191.480469 342.390625 C 128.628906 342.390625 105.945312 309.238281 105.945312 277.175781 L 73.363281 277.175781 C 73.363281 326.628906 115.851562 375 191.480469 375 C 229.246094 375 259.367188 363.769531 279.667969 344.160156 C 299.972656 324.546875 309.59375 297.363281 309.59375 269.023438 L 309.59375 8.152344 L 277.011719 8.152344 L 277.011719 40.171875 C 255.800781 15.503906 224.320312 0 187.40625 0 Z M 187.40625 32.609375 C 215.582031 32.609375 236.988281 43.515625 252.429688 61.539062 C 267.875 79.5625 277.011719 105.261719 277.011719 134.511719 C 277.011719 163.757812 267.875 189.457031 252.429688 207.480469 C 236.988281 225.507812 215.582031 236.414062 187.40625 236.414062 C 159.230469 236.414062 137.824219 225.507812 122.382812 207.480469 C 106.9375 189.457031 97.800781 163.757812 97.800781 134.511719 C 97.800781 105.261719 106.9375 79.5625 122.382812 61.539062 C 137.824219 43.515625 159.230469 32.609375 187.40625 32.609375 Z M 187.40625 32.609375"/></g></svg>