<svg xmlns="http://www.w3.org/2000/svg" width="375" height="375" version="1.0"><path fill="#FFF" d="M-37.5-37.5h450v450h-450z"/><path fill="#FFF" d="M-37.5-37.5h450v450h-450z"/><path fill="#88C3FF" d="M-37.5-37.5h450v450h-450z"/><path fill="#FFF" d="M25.797-34.137c-32.899 0-59.934 27.035-59.934 59.934v323.512c0 32.765 27.035 59.8 59.934 59.8h323.512c32.765 0 59.8-27.035 59.8-59.8V25.797c0-32.899-27.035-59.934-59.8-59.934Zm0 34.094h323.512c14.386 0 25.707 11.32 25.707 25.84v323.512c0 14.386-11.32 25.707-25.707 25.707H25.797c-14.52 0-25.84-11.32-25.84-25.707V25.797c0-14.52 11.32-25.84 25.84-25.84Zm42.351 34.098c-18.777 0-34.093 15.316-34.093 34.093 0 18.782 15.316 34.098 34.093 34.098 18.782 0 34.098-15.316 34.098-34.098 0-18.777-15.316-34.093-34.098-34.093ZM34.055 136.344v204.574h68.191V136.344Zm102.289 0v204.574h68.191v-91.367c0-28.367 2.664-53.809 36.758-53.809 33.566 0 31.434 30.5 31.434 55.676v89.5h68.191V239.961c0-58.602-12.254-103.617-78.715-103.617-31.965 0-48.078 12.785-56.871 29.832h-.797v-29.832Zm0 0"/></svg>