<svg xmlns="http://www.w3.org/2000/svg" width="375" viewBox="0 0 375 375" height="375" version="1.0"><path fill="#FFF" d="M-37.5 -37.5H412.5V412.5H-37.5z"/><path fill="#FFF" d="M-37.5 -37.5H412.5V412.5H-37.5z"/><path fill="#88C3FF" d="M-37.5 -37.5H412.5V412.5H-37.5z"/><path fill="#FFF" d="M 25.796875 -34.136719 C -7.101562 -34.136719 -34.136719 -7.101562 -34.136719 25.796875 L -34.136719 349.308594 C -34.136719 382.074219 -7.101562 409.109375 25.796875 409.109375 L 349.308594 409.109375 C 382.074219 409.109375 409.109375 382.074219 409.109375 349.308594 L 409.109375 25.796875 C 409.109375 -7.101562 382.074219 -34.136719 349.308594 -34.136719 Z M 25.796875 -0.0429688 L 349.308594 -0.0429688 C 363.695312 -0.0429688 375.015625 11.277344 375.015625 25.796875 L 375.015625 349.308594 C 375.015625 363.695312 363.695312 375.015625 349.308594 375.015625 L 25.796875 375.015625 C 11.277344 375.015625 -0.0429688 363.695312 -0.0429688 349.308594 L -0.0429688 25.796875 C -0.0429688 11.277344 11.277344 -0.0429688 25.796875 -0.0429688 Z M 68.148438 34.054688 C 49.371094 34.054688 34.054688 49.371094 34.054688 68.148438 C 34.054688 86.929688 49.371094 102.246094 68.148438 102.246094 C 86.929688 102.246094 102.246094 86.929688 102.246094 68.148438 C 102.246094 49.371094 86.929688 34.054688 68.148438 34.054688 Z M 34.054688 136.34375 L 34.054688 340.917969 L 102.246094 340.917969 L 102.246094 136.34375 Z M 136.34375 136.34375 L 136.34375 340.917969 L 204.535156 340.917969 L 204.535156 249.550781 C 204.535156 221.183594 207.199219 195.742188 241.292969 195.742188 C 274.859375 195.742188 272.726562 226.242188 272.726562 251.417969 L 272.726562 340.917969 L 340.917969 340.917969 L 340.917969 239.960938 C 340.917969 181.359375 328.664062 136.34375 262.203125 136.34375 C 230.238281 136.34375 214.125 149.128906 205.332031 166.175781 L 204.535156 166.175781 L 204.535156 136.34375 Z M 136.34375 136.34375"/></svg>