<svg xmlns="http://www.w3.org/2000/svg" width="375" height="375" version="1.0"><defs><clipPath id="a"><path d="M0 80.566h375V294H0Zm0 0"/></clipPath></defs><path fill="#FFF" d="M-37.5-37.5h450v450h-450z"/><path fill="#FFF" d="M-37.5-37.5h450v450h-450z"/><path fill="#A3A3A3" d="M-37.5-37.5h450v450h-450z"/><g clip-path="url(#a)"><path fill="#FFF" d="M105.762 80.566c58.414 0 105.761 47.653 105.761 106.43 0 58.777-47.351 106.43-105.761 106.43C47.355 293.426 0 245.773 0 186.996c0-58.777 47.352-106.43 105.762-106.43Zm168.898 6.235c29.203 0 52.88 44.855 52.88 100.195h.003c0 55.328-23.676 100.195-52.879 100.195-29.207 0-52.883-44.867-52.883-100.195 0-55.324 23.672-100.195 52.88-100.195Zm81.742 10.437c10.27 0 18.598 40.184 18.598 89.758 0 49.559-8.324 89.762-18.598 89.762-10.273 0-18.597-40.192-18.597-89.762s8.328-89.758 18.597-89.758Zm0 0"/></g></svg>