<svg xmlns="http://www.w3.org/2000/svg" xmlns:xlink="http://www.w3.org/1999/xlink" width="375" viewBox="0 0 375 112.5" height="112.5" version="1.0"><defs><g id="a"><path d="M 44.046875 -44.203125 L 15.625 -44.203125 L 15.625 -30.140625 L 41.078125 -30.140625 L 41.078125 -22.25 L 15.625 -22.25 L 15.625 -7.890625 L 44.9375 -7.890625 L 44.9375 0 L 6.84375 0 L 6.84375 -52.078125 L 44.046875 -52.078125 Z M 44.046875 -44.203125"/></g><g id="b"><path d="M 39.875 0 L 30.359375 -15.78125 C 29.859375 -15.726562 29.066406 -15.703125 27.984375 -15.703125 L 15.625 -15.703125 L 15.625 0 L 6.84375 0 L 6.84375 -52.078125 L 27.984375 -52.078125 C 34.628906 -52.078125 39.785156 -50.523438 43.453125 -47.421875 C 47.117188 -44.328125 48.953125 -39.953125 48.953125 -34.296875 C 48.953125 -30.128906 48.019531 -26.609375 46.15625 -23.734375 C 44.300781 -20.859375 41.640625 -18.75 38.171875 -17.40625 L 49.859375 0 Z M 15.625 -23.59375 L 27.984375 -23.59375 C 36.410156 -23.59375 40.625 -27.085938 40.625 -34.078125 C 40.625 -40.828125 36.410156 -44.203125 27.984375 -44.203125 L 15.625 -44.203125 Z M 15.625 -23.59375"/></g><g id="c"><path d="M 15.625 0 L 6.84375 0 L 6.84375 -52.078125 L 15.625 -52.078125 Z M 15.625 0"/></g><g id="d"><path d="M 29.90625 -52.3125 C 33.582031 -52.3125 37.164062 -51.601562 40.65625 -50.1875 C 44.15625 -48.769531 47.171875 -46.796875 49.703125 -44.265625 L 44.5625 -37.875 C 42.675781 -39.90625 40.441406 -41.515625 37.859375 -42.703125 C 35.285156 -43.898438 32.6875 -44.5 30.0625 -44.5 C 24.851562 -44.5 20.445312 -42.722656 16.84375 -39.171875 C 13.25 -35.628906 11.453125 -31.300781 11.453125 -26.1875 C 11.453125 -21.03125 13.25 -16.675781 16.84375 -13.125 C 20.445312 -9.582031 24.851562 -7.8125 30.0625 -7.8125 C 35.46875 -7.8125 40.300781 -9.867188 44.5625 -13.984375 L 49.78125 -8.1875 C 47.101562 -5.550781 43.976562 -3.460938 40.40625 -1.921875 C 36.832031 -0.390625 33.234375 0.375 29.609375 0.375 C 21.972656 0.375 15.550781 -2.164062 10.34375 -7.25 C 5.132812 -12.332031 2.53125 -18.617188 2.53125 -26.109375 C 2.53125 -33.503906 5.171875 -39.71875 10.453125 -44.75 C 15.734375 -49.789062 22.21875 -52.3125 29.90625 -52.3125 Z M 29.90625 -52.3125"/></g><g id="f"><path d="M 46.359375 -45.765625 L 14.65625 -7.890625 L 46.734375 -7.890625 L 46.734375 0 L 2.75 0 L 2.75 -6.328125 L 34.53125 -44.203125 L 3.71875 -44.203125 L 3.71875 -52.078125 L 46.359375 -52.078125 Z M 46.359375 -45.765625"/></g><g id="g"><path d="M 52.015625 0 L 43.234375 0 L 43.234375 -21.578125 L 15.625 -21.578125 L 15.625 0 L 6.84375 0 L 6.84375 -52.078125 L 15.625 -52.078125 L 15.625 -29.46875 L 43.234375 -29.46875 L 43.234375 -52.078125 L 52.015625 -52.078125 Z M 52.015625 0"/></g><g id="h"><path d="M 51.109375 -52.078125 L 51.109375 -21.578125 C 51.109375 -14.785156 49.097656 -9.425781 45.078125 -5.5 C 41.066406 -1.582031 35.539062 0.375 28.5 0.375 C 21.457031 0.375 15.910156 -1.582031 11.859375 -5.5 C 7.816406 -9.425781 5.796875 -14.785156 5.796875 -21.578125 L 5.796875 -52.078125 L 14.578125 -52.078125 L 14.578125 -21.578125 C 14.578125 -17.210938 15.828125 -13.773438 18.328125 -11.265625 C 20.835938 -8.765625 24.253906 -7.515625 28.578125 -7.515625 C 32.835938 -7.515625 36.195312 -8.753906 38.65625 -11.234375 C 41.113281 -13.710938 42.34375 -17.160156 42.34375 -21.578125 L 42.34375 -52.078125 Z M 51.109375 -52.078125"/></g></defs><g fill="#FFF1E6"><use x=".83" y="86.099" xmlns:xlink="http://www.w3.org/1999/xlink" xlink:href="#a" xlink:type="simple" xlink:actuate="onLoad" xlink:show="embed"/></g><g fill="#FDE2E4"><use x="51.129" y="86.099" xmlns:xlink="http://www.w3.org/1999/xlink" xlink:href="#b" xlink:type="simple" xlink:actuate="onLoad" xlink:show="embed"/></g><g fill="#FAD2E1"><use x="106.417" y="86.099" xmlns:xlink="http://www.w3.org/1999/xlink" xlink:href="#c" xlink:type="simple" xlink:actuate="onLoad" xlink:show="embed"/></g><g fill="#E2ECE9"><use x="130.374" y="86.099" xmlns:xlink="http://www.w3.org/1999/xlink" xlink:href="#d" xlink:type="simple" xlink:actuate="onLoad" xlink:show="embed"/></g><g fill="#D8BBFF"><use x="183.724" y="86.099" xmlns:xlink="http://www.w3.org/1999/xlink" xlink:href="#e" xlink:type="simple" xlink:actuate="onLoad" xlink:show="embed"/></g><g fill="#BEE1E6"><use x="204.406" y="86.099" xmlns:xlink="http://www.w3.org/1999/xlink" xlink:href="#f" xlink:type="simple" xlink:actuate="onLoad" xlink:show="embed"/></g><g fill="#F0EFEB"><use x="255.453" y="86.099" xmlns:xlink="http://www.w3.org/1999/xlink" xlink:href="#g" xlink:type="simple" xlink:actuate="onLoad" xlink:show="embed"/></g><g fill="#CDDAFD"><use x="315.799" y="86.099" xmlns:xlink="http://www.w3.org/1999/xlink" xlink:href="#h" xlink:type="simple" xlink:actuate="onLoad" xlink:show="embed"/></g></svg>