<?xml version="1.0" encoding="UTF-8"?><svg xmlns="http://www.w3.org/2000/svg" xmlns:xlink="http://www.w3.org/1999/xlink" contentScriptType="text/ecmascript" width="375" zoomAndPan="magnify" contentStyleType="text/css" viewBox="0 0 375 374.999991" height="374.999991" preserveAspectRatio="xMidYMid meet" version="1.0"><path fill="rgb(49.798584%, 53.729248%, 54.119873%)" d="M 268.101562 143.085938 C 226.117188 123.132812 183.261719 172.027344 163.28125 213.953125 C 150.644531 240.472656 147.101562 266.914062 156.820312 287.816406 C 146.269531 283.4375 134.917969 274.980469 124.082031 259.09375 C 87.183594 204.976562 65.117188 253.136719 110.386719 295.417969 C 128.78125 312.597656 153.078125 312.121094 171.585938 307.070312 C 176.199219 311.015625 181.636719 314.542969 187.992188 317.5625 C 229.980469 337.511719 287.644531 300.84375 296.515625 255.265625 C 307.152344 200.609375 310.085938 163.035156 268.101562 143.085938 Z M 268.101562 143.085938 " fill-opacity="1" fill-rule="nonzero"/><path fill="rgb(17.649841%, 11.369324%, 1.959229%)" d="M 152.046875 284.179688 C 152.046875 284.511719 151.980469 284.828125 151.855469 285.132812 C 151.730469 285.4375 151.550781 285.707031 151.316406 285.941406 C 151.082031 286.171875 150.8125 286.351562 150.507812 286.480469 C 150.203125 286.605469 149.882812 286.667969 149.554688 286.667969 C 149.222656 286.667969 148.90625 286.605469 148.597656 286.480469 C 148.292969 286.351562 148.023438 286.171875 147.789062 285.941406 C 147.558594 285.707031 147.375 285.4375 147.25 285.132812 C 147.125 284.828125 147.058594 284.511719 147.058594 284.179688 C 147.058594 283.851562 147.125 283.53125 147.25 283.226562 C 147.375 282.921875 147.558594 282.652344 147.789062 282.421875 C 148.023438 282.1875 148.292969 282.007812 148.597656 281.878906 C 148.90625 281.753906 149.222656 281.691406 149.554688 281.691406 C 149.882812 281.691406 150.203125 281.753906 150.507812 281.878906 C 150.8125 282.007812 151.082031 282.1875 151.316406 282.421875 C 151.550781 282.652344 151.730469 282.921875 151.855469 283.226562 C 151.980469 283.53125 152.046875 283.851562 152.046875 284.179688 Z M 134.8125 275.921875 C 130.316406 271.546875 126.050781 266.402344 122.023438 260.496094 C 113.703125 248.292969 106.074219 240.902344 99.140625 238.324219 C 94.050781 236.433594 90.578125 237.683594 88.71875 242.074219 C 86.488281 247.34375 87.101562 254.453125 90.566406 263.398438 C 94.644531 273.941406 101.820312 284.007812 112.089844 293.597656 C 120.140625 301.117188 129.867188 305.621094 141.265625 307.113281 C 150.601562 308.335938 160.488281 307.519531 170.925781 304.671875 C 171.324219 304.5625 171.726562 304.554688 172.128906 304.644531 C 172.53125 304.734375 172.890625 304.914062 173.207031 305.179688 C 175.769531 307.375 178.570312 309.402344 181.597656 311.269531 C 181.878906 311.441406 182.117188 311.664062 182.308594 311.929688 C 182.503906 312.199219 182.636719 312.492188 182.714844 312.8125 C 182.792969 313.136719 182.804688 313.457031 182.75 313.785156 C 182.699219 314.109375 182.585938 314.414062 182.410156 314.695312 C 182.238281 314.976562 182.015625 315.210938 181.75 315.40625 C 181.480469 315.597656 181.1875 315.734375 180.863281 315.808594 C 180.542969 315.886719 180.21875 315.898438 179.894531 315.84375 C 179.566406 315.792969 179.261719 315.679688 178.980469 315.507812 C 175.730469 313.503906 172.726562 311.324219 169.964844 308.960938 L 171.585938 307.070312 L 172.242188 309.472656 C 161.15625 312.496094 150.617188 313.355469 140.621094 312.050781 C 128.160156 310.417969 117.511719 305.480469 108.683594 297.234375 C 97.859375 287.125 90.269531 276.441406 85.914062 265.191406 C 81.96875 254.992188 81.371094 246.644531 84.125 240.136719 C 85.542969 236.792969 87.722656 234.53125 90.667969 233.347656 C 93.671875 232.140625 97.074219 232.246094 100.878906 233.660156 C 108.804688 236.605469 117.226562 244.617188 126.144531 257.691406 C 129.984375 263.328125 134.035156 268.214844 138.292969 272.355469 C 138.527344 272.585938 138.710938 272.851562 138.84375 273.15625 C 138.972656 273.460938 139.042969 273.777344 139.046875 274.105469 C 139.050781 274.4375 138.992188 274.753906 138.867188 275.0625 C 138.746094 275.367188 138.570312 275.640625 138.339844 275.875 C 138.109375 276.113281 137.839844 276.296875 137.539062 276.425781 C 137.234375 276.554688 136.917969 276.621094 136.585938 276.628906 C 136.253906 276.632812 135.9375 276.574219 135.628906 276.449219 C 135.324219 276.328125 135.050781 276.152344 134.8125 275.921875 Z M 197.847656 320.441406 C 197.847656 320.773438 197.785156 321.089844 197.660156 321.394531 C 197.53125 321.699219 197.351562 321.96875 197.117188 322.203125 C 196.886719 322.4375 196.617188 322.617188 196.308594 322.742188 C 196.003906 322.867188 195.6875 322.933594 195.355469 322.933594 C 195.027344 322.933594 194.707031 322.867188 194.402344 322.742188 C 194.097656 322.617188 193.828125 322.4375 193.59375 322.203125 C 193.359375 321.96875 193.179688 321.699219 193.054688 321.394531 C 192.925781 321.089844 192.863281 320.773438 192.863281 320.441406 C 192.863281 320.113281 192.925781 319.796875 193.054688 319.492188 C 193.179688 319.183594 193.359375 318.917969 193.59375 318.683594 C 193.828125 318.449219 194.097656 318.269531 194.402344 318.144531 C 194.707031 318.015625 195.027344 317.953125 195.355469 317.953125 C 195.6875 317.953125 196.003906 318.015625 196.308594 318.144531 C 196.617188 318.269531 196.886719 318.449219 197.117188 318.683594 C 197.351562 318.917969 197.53125 319.183594 197.660156 319.492188 C 197.785156 319.796875 197.847656 320.113281 197.847656 320.441406 Z M 211.773438 320.617188 C 220.625 320.847656 229.644531 319.257812 238.835938 315.847656 C 247.746094 312.539062 256.082031 307.800781 263.847656 301.632812 C 271.644531 295.4375 278.152344 288.367188 283.363281 280.421875 C 288.78125 272.160156 292.351562 263.617188 294.070312 254.792969 C 298.300781 233.054688 300.527344 216.320312 300.757812 204.589844 C 301.054688 189.378906 298.46875 177.078125 293 167.691406 C 292.835938 167.40625 292.730469 167.101562 292.683594 166.773438 C 292.640625 166.449219 292.660156 166.125 292.746094 165.804688 C 292.828125 165.488281 292.972656 165.195312 293.171875 164.933594 C 293.371094 164.671875 293.617188 164.457031 293.902344 164.289062 C 294.1875 164.125 294.492188 164.019531 294.820312 163.976562 C 295.148438 163.929688 295.472656 163.949219 295.792969 164.035156 C 296.113281 164.121094 296.402344 164.261719 296.664062 164.460938 C 296.929688 164.664062 297.144531 164.90625 297.308594 165.191406 C 303.246094 175.378906 306.054688 188.542969 305.742188 204.683594 C 305.507812 216.703125 303.246094 233.722656 298.960938 255.742188 C 297.121094 265.207031 293.3125 274.34375 287.535156 283.148438 C 282.027344 291.542969 275.167969 299 266.949219 305.527344 C 258.769531 312.023438 249.976562 317.019531 240.570312 320.511719 C 230.78125 324.148438 221.136719 325.84375 211.644531 325.59375 C 211.3125 325.585938 210.996094 325.515625 210.695312 325.378906 C 210.394531 325.246094 210.128906 325.058594 209.902344 324.820312 C 209.671875 324.582031 209.5 324.308594 209.382812 324 C 209.265625 323.691406 209.207031 323.371094 209.21875 323.042969 C 209.226562 322.710938 209.296875 322.394531 209.433594 322.09375 C 209.566406 321.792969 209.753906 321.527344 209.992188 321.300781 C 210.234375 321.074219 210.507812 320.902344 210.816406 320.78125 C 211.125 320.664062 211.445312 320.609375 211.773438 320.617188 Z M 287.132812 153.730469 C 287.132812 154.0625 287.070312 154.378906 286.945312 154.683594 C 286.816406 154.988281 286.636719 155.257812 286.402344 155.492188 C 286.171875 155.726562 285.902344 155.90625 285.59375 156.03125 C 285.289062 156.15625 284.972656 156.21875 284.640625 156.21875 C 284.3125 156.21875 283.992188 156.15625 283.6875 156.03125 C 283.382812 155.90625 283.113281 155.726562 282.878906 155.492188 C 282.644531 155.257812 282.464844 154.988281 282.339844 154.683594 C 282.210938 154.378906 282.148438 154.0625 282.148438 153.730469 C 282.148438 153.402344 282.210938 153.085938 282.339844 152.777344 C 282.464844 152.472656 282.644531 152.207031 282.878906 151.972656 C 283.113281 151.738281 283.382812 151.558594 283.6875 151.433594 C 283.992188 151.304688 284.3125 151.242188 284.640625 151.242188 C 284.972656 151.242188 285.289062 151.304688 285.59375 151.433594 C 285.902344 151.558594 286.171875 151.738281 286.402344 151.972656 C 286.636719 152.207031 286.816406 152.472656 286.945312 152.777344 C 287.070312 153.085938 287.132812 153.402344 287.132812 153.730469 Z M 269.769531 146.691406 C 268.878906 146.230469 267.964844 145.777344 267.03125 145.332031 C 248.816406 136.675781 229.476562 140.648438 209.011719 157.246094 C 200.359375 164.261719 192.089844 173.132812 184.195312 183.859375 C 176.988281 193.652344 170.765625 204.039062 165.535156 215.019531 C 153.90625 239.421875 150.804688 260.820312 156.234375 279.21875 C 156.328125 279.535156 156.359375 279.859375 156.324219 280.1875 C 156.289062 280.515625 156.191406 280.824219 156.035156 281.113281 C 155.875 281.402344 155.667969 281.652344 155.410156 281.859375 C 155.152344 282.066406 154.867188 282.21875 154.550781 282.308594 C 154.234375 282.402344 153.910156 282.433594 153.582031 282.398438 C 153.253906 282.363281 152.941406 282.265625 152.652344 282.109375 C 152.363281 281.949219 152.113281 281.742188 151.90625 281.488281 C 151.699219 281.230469 151.546875 280.941406 151.453125 280.625 C 145.664062 261.011719 148.859375 238.429688 161.03125 212.882812 C 166.402344 201.613281 172.78125 190.957031 180.175781 180.910156 C 188.324219 169.84375 196.886719 160.664062 205.867188 153.382812 C 227.964844 135.464844 249.0625 131.28125 269.171875 140.835938 C 270.160156 141.304688 271.128906 141.785156 272.070312 142.277344 C 272.363281 142.429688 272.617188 142.632812 272.828125 142.886719 C 273.042969 143.136719 273.199219 143.421875 273.296875 143.738281 C 273.398438 144.050781 273.433594 144.371094 273.402344 144.703125 C 273.375 145.03125 273.285156 145.339844 273.132812 145.632812 C 272.980469 145.925781 272.777344 146.179688 272.523438 146.390625 C 272.269531 146.605469 271.984375 146.757812 271.671875 146.859375 C 271.355469 146.957031 271.03125 146.992188 270.703125 146.964844 C 270.375 146.9375 270.0625 146.84375 269.769531 146.691406 Z M 269.769531 146.691406 " fill-opacity="1" fill-rule="nonzero"/><path stroke-linecap="round" transform="matrix(0.830837, 0, 0, 0.829646, 19.010551, 5.641589)" fill-opacity="1" fill="rgb(49.798584%, 53.729248%, 54.119873%)" fill-rule="nonzero" stroke-linejoin="round" d="M 160.033945 320.226753 L 156.601788 280.591998 C 157.452775 269.937039 166.870049 261.918746 177.52384 262.775663 C 188.177631 263.63258 196.193833 273.044539 195.338144 283.699499 L 195.403966 310.245085 " stroke="rgb(17.649841%, 11.369324%, 1.959229%)" stroke-width="6" stroke-opacity="1" stroke-miterlimit="10"/><path stroke-linecap="round" transform="matrix(0.830837, 0, 0, 0.829646, 19.010551, 5.641589)" fill-opacity="1" fill="rgb(49.798584%, 53.729248%, 54.119873%)" fill-rule="nonzero" stroke-linejoin="round" d="M 234.507046 320.226753 L 221.840977 279.556165 C 218.662706 269.348497 224.408042 258.401621 234.615183 255.223495 C 244.817622 252.04537 255.767612 257.794246 258.945884 267.997205 L 271.611953 308.672502 " stroke="rgb(17.649841%, 11.369324%, 1.959229%)" stroke-width="6" stroke-opacity="1" stroke-miterlimit="10"/><path fill="rgb(98.039246%, 82.348633%, 88.238525%)" d="M 248.054688 43.117188 L 209.300781 75.761719 C 203.820312 80.375 205.398438 89.183594 212.140625 91.613281 L 259.828125 108.804688 C 266.570312 111.234375 273.417969 105.46875 272.15625 98.421875 L 263.222656 48.585938 C 261.960938 41.542969 253.53125 38.503906 248.054688 43.117188 Z M 248.054688 43.117188 " fill-opacity="1" fill-rule="nonzero"/><path fill="rgb(17.649841%, 11.369324%, 1.959229%)" d="M 249.660156 45.019531 L 210.90625 77.664062 C 208.902344 79.351562 208.128906 81.488281 208.589844 84.066406 C 209.054688 86.648438 210.519531 88.382812 212.988281 89.273438 L 260.671875 106.464844 C 263.140625 107.355469 265.378906 106.953125 267.386719 105.265625 C 269.390625 103.574219 270.164062 101.441406 269.703125 98.859375 L 260.769531 49.027344 C 260.367188 46.785156 259.15625 45.160156 257.132812 44.144531 C 255.136719 43.148438 253.152344 43.113281 251.183594 44.039062 C 250.882812 44.179688 250.566406 44.257812 250.238281 44.277344 C 249.90625 44.292969 249.585938 44.242188 249.277344 44.132812 C 248.964844 44.019531 248.6875 43.855469 248.441406 43.632812 C 248.199219 43.410156 248.003906 43.148438 247.863281 42.851562 C 247.722656 42.554688 247.644531 42.238281 247.628906 41.910156 C 247.613281 41.578125 247.660156 41.257812 247.773438 40.949219 C 247.882812 40.636719 248.050781 40.359375 248.273438 40.117188 C 248.496094 39.871094 248.753906 39.679688 249.054688 39.539062 C 252.488281 37.921875 255.921875 37.972656 259.363281 39.695312 C 262.878906 41.453125 264.980469 44.269531 265.675781 48.148438 L 274.609375 97.980469 C 275.410156 102.449219 274.074219 106.144531 270.601562 109.070312 C 267.128906 111.996094 263.253906 112.6875 258.980469 111.144531 L 211.296875 93.953125 C 207.023438 92.414062 204.484375 89.410156 203.683594 84.945312 C 202.882812 80.476562 204.21875 76.78125 207.695312 73.859375 L 246.445312 41.214844 C 246.699219 41.003906 246.984375 40.847656 247.296875 40.746094 C 247.613281 40.648438 247.933594 40.609375 248.265625 40.636719 C 248.59375 40.667969 248.90625 40.757812 249.199219 40.90625 C 249.492188 41.058594 249.746094 41.261719 249.957031 41.511719 C 250.171875 41.765625 250.328125 42.050781 250.429688 42.363281 C 250.527344 42.679688 250.566406 43 250.535156 43.328125 C 250.507812 43.65625 250.417969 43.96875 250.265625 44.261719 C 250.113281 44.554688 249.914062 44.808594 249.660156 45.019531 Z M 249.660156 45.019531 " fill-opacity="1" fill-rule="nonzero"/><path fill="rgb(98.039246%, 82.348633%, 88.238525%)" d="M 125.875 80.863281 L 176.316406 85.949219 C 183.449219 86.667969 187.125 94.828125 182.933594 100.636719 L 153.300781 141.714844 C 149.113281 147.519531 140.195312 146.621094 137.253906 140.09375 L 116.445312 93.929688 C 113.503906 87.402344 118.742188 80.140625 125.875 80.863281 Z M 125.875 80.863281 " fill-opacity="1" fill-rule="nonzero"/><path fill="rgb(17.649841%, 11.369324%, 1.959229%)" d="M 126.125 78.386719 L 176.566406 83.472656 C 181.085938 83.929688 184.28125 86.226562 186.144531 90.363281 C 188.007812 94.5 187.613281 98.410156 184.957031 102.089844 L 155.324219 143.167969 C 152.667969 146.847656 149.082031 148.460938 144.558594 148.003906 C 140.039062 147.550781 136.847656 145.253906 134.980469 141.117188 L 114.175781 94.953125 C 112.550781 91.347656 112.699219 87.828125 114.617188 84.394531 C 116.496094 81.023438 119.316406 79.046875 123.078125 78.464844 C 123.402344 78.414062 123.726562 78.425781 124.050781 78.503906 C 124.371094 78.582031 124.664062 78.71875 124.929688 78.914062 C 125.199219 79.105469 125.417969 79.34375 125.589844 79.628906 C 125.761719 79.910156 125.871094 80.214844 125.925781 80.539062 C 125.976562 80.867188 125.960938 81.1875 125.882812 81.507812 C 125.804688 81.832031 125.667969 82.125 125.472656 82.390625 C 125.277344 82.65625 125.039062 82.875 124.757812 83.046875 C 124.476562 83.21875 124.171875 83.332031 123.84375 83.382812 C 121.683594 83.71875 120.0625 84.863281 118.96875 86.816406 C 117.863281 88.796875 117.78125 90.828125 118.71875 92.910156 L 139.527344 139.074219 C 140.605469 141.464844 142.449219 142.789062 145.0625 143.054688 C 147.671875 143.316406 149.746094 142.386719 151.28125 140.257812 L 180.914062 99.179688 C 182.449219 97.054688 182.675781 94.796875 181.597656 92.40625 C 180.519531 90.015625 178.675781 88.6875 176.066406 88.425781 L 125.625 83.335938 C 125.296875 83.304688 124.984375 83.210938 124.695312 83.054688 C 124.402344 82.898438 124.152344 82.691406 123.945312 82.4375 C 123.734375 82.179688 123.582031 81.894531 123.488281 81.578125 C 123.390625 81.261719 123.363281 80.941406 123.394531 80.609375 C 123.429688 80.28125 123.523438 79.972656 123.679688 79.683594 C 123.835938 79.390625 124.042969 79.140625 124.296875 78.933594 C 124.554688 78.726562 124.839844 78.574219 125.15625 78.476562 C 125.472656 78.382812 125.796875 78.351562 126.125 78.386719 Z M 126.125 78.386719 " fill-opacity="1" fill-rule="nonzero"/><path fill="rgb(49.798584%, 53.729248%, 54.119873%)" d="M 283.054688 123.191406 C 295.007812 161.773438 265.847656 178.417969 227.210938 190.355469 C 188.574219 202.289062 155.09375 204.996094 143.140625 166.414062 C 131.1875 127.832031 152.820312 86.878906 191.457031 74.945312 C 230.09375 63.011719 271.105469 84.609375 283.054688 123.191406 Z M 283.054688 123.191406 " fill-opacity="1" fill-rule="nonzero"/><path fill="rgb(17.649841%, 11.369324%, 1.959229%)" d="M 155.058594 103.648438 C 155.058594 103.976562 154.996094 104.292969 154.867188 104.597656 C 154.742188 104.902344 154.5625 105.171875 154.328125 105.40625 C 154.09375 105.640625 153.824219 105.820312 153.519531 105.945312 C 153.214844 106.074219 152.898438 106.136719 152.566406 106.136719 C 152.234375 106.136719 151.917969 106.074219 151.613281 105.945312 C 151.308594 105.820312 151.039062 105.640625 150.804688 105.40625 C 150.570312 105.171875 150.390625 104.902344 150.261719 104.597656 C 150.136719 104.292969 150.074219 103.976562 150.074219 103.648438 C 150.074219 103.316406 150.136719 103 150.261719 102.695312 C 150.390625 102.390625 150.570312 102.121094 150.804688 101.886719 C 151.039062 101.652344 151.308594 101.472656 151.613281 101.347656 C 151.917969 101.222656 152.234375 101.15625 152.566406 101.15625 C 152.898438 101.15625 153.214844 101.222656 153.519531 101.347656 C 153.824219 101.472656 154.09375 101.652344 154.328125 101.886719 C 154.5625 102.121094 154.742188 102.390625 154.867188 102.695312 C 154.996094 103 155.058594 103.316406 155.058594 103.648438 Z M 161.699219 89.257812 C 170.070312 81.519531 179.742188 75.957031 190.71875 72.566406 C 200.53125 69.535156 210.503906 68.53125 220.636719 69.546875 C 230.425781 70.527344 239.6875 73.320312 248.425781 77.921875 C 257.164062 82.527344 264.703125 88.582031 271.039062 96.09375 C 277.605469 103.871094 282.402344 112.660156 285.4375 122.457031 C 291.234375 141.164062 288.039062 156.523438 275.855469 168.535156 C 266.601562 177.660156 250.632812 185.722656 227.949219 192.734375 C 205.261719 199.742188 187.519531 202.089844 174.726562 199.777344 C 157.878906 196.734375 146.554688 185.859375 140.757812 167.148438 C 135.554688 150.34375 136.140625 133.761719 142.519531 117.402344 C 142.640625 117.097656 142.8125 116.824219 143.042969 116.585938 C 143.273438 116.347656 143.539062 116.160156 143.839844 116.027344 C 144.144531 115.894531 144.460938 115.828125 144.789062 115.820312 C 145.121094 115.8125 145.4375 115.867188 145.746094 115.988281 C 146.054688 116.109375 146.328125 116.28125 146.566406 116.511719 C 146.804688 116.738281 146.992188 117.003906 147.125 117.304688 C 147.257812 117.609375 147.328125 117.925781 147.335938 118.253906 C 147.339844 118.585938 147.285156 118.902344 147.164062 119.210938 C 141.207031 134.488281 140.660156 149.976562 145.523438 165.679688 C 150.722656 182.460938 160.75 192.195312 175.613281 194.878906 C 187.609375 197.046875 204.5625 194.746094 226.472656 187.976562 C 248.386719 181.207031 263.679688 173.546875 272.351562 164.992188 C 283.101562 154.398438 285.875 140.710938 280.675781 123.925781 C 274.902344 105.292969 263.378906 91.425781 246.101562 82.328125 C 228.824219 73.226562 210.855469 71.558594 192.191406 77.324219 C 181.9375 80.492188 172.902344 85.6875 165.082031 92.910156 C 164.839844 93.132812 164.566406 93.304688 164.253906 93.417969 C 163.945312 93.53125 163.625 93.582031 163.292969 93.570312 C 162.964844 93.558594 162.648438 93.480469 162.347656 93.34375 C 162.046875 93.207031 161.785156 93.015625 161.5625 92.773438 C 161.335938 92.53125 161.167969 92.253906 161.054688 91.945312 C 160.9375 91.636719 160.886719 91.316406 160.898438 90.988281 C 160.914062 90.65625 160.988281 90.34375 161.125 90.042969 C 161.265625 89.742188 161.457031 89.480469 161.699219 89.257812 Z M 161.699219 89.257812 " fill-opacity="1" fill-rule="nonzero"/><path fill="rgb(17.649841%, 11.369324%, 1.959229%)" d="M 209.035156 158.675781 C 210.164062 162.328125 204.339844 160.128906 198.546875 161.917969 C 192.753906 163.707031 189.1875 168.808594 188.058594 165.15625 C 186.925781 161.503906 190.707031 157.09375 196.5 155.304688 C 202.289062 153.515625 207.902344 155.023438 209.035156 158.675781 Z M 209.035156 158.675781 " fill-opacity="1" fill-rule="nonzero"/><path stroke-linecap="round" transform="matrix(0.830837, 0, 0, 0.829646, 19.010551, 5.641589)" fill="none" stroke-linejoin="round" d="M 299.807356 145.797106 L 338.101763 133.950938 " stroke="rgb(17.649841%, 11.369324%, 1.959229%)" stroke-width="6" stroke-opacity="1" stroke-miterlimit="10"/><path stroke-linecap="round" transform="matrix(0.830837, 0, 0, 0.829646, 19.010551, 5.641589)" fill="none" stroke-linejoin="round" d="M 303.629744 158.151775 L 341.924152 146.300898 " stroke="rgb(17.649841%, 11.369324%, 1.959229%)" stroke-width="6" stroke-opacity="1" stroke-miterlimit="10"/><path stroke-linecap="round" transform="matrix(0.830837, 0, 0, 0.829646, 19.010551, 5.641589)" fill="none" stroke-linejoin="round" d="M 307.447431 170.501735 L 345.74654 158.655566 " stroke="rgb(17.649841%, 11.369324%, 1.959229%)" stroke-width="6" stroke-opacity="1" stroke-miterlimit="10"/><path stroke-linecap="round" transform="matrix(0.830837, 0, 0, 0.829646, 19.010551, 5.641589)" fill="none" stroke-linejoin="round" d="M 125.105872 199.844072 L 163.400279 187.997903 " stroke="rgb(17.649841%, 11.369324%, 1.959229%)" stroke-width="6" stroke-opacity="1" stroke-miterlimit="10"/><path stroke-linecap="round" transform="matrix(0.830837, 0, 0, 0.829646, 19.010551, 5.641589)" fill="none" stroke-linejoin="round" d="M 128.923559 212.194031 L 167.222668 200.347863 " stroke="rgb(17.649841%, 11.369324%, 1.959229%)" stroke-width="6" stroke-opacity="1" stroke-miterlimit="10"/><path stroke-linecap="round" transform="matrix(0.830837, 0, 0, 0.829646, 19.010551, 5.641589)" fill="none" stroke-linejoin="round" d="M 132.745947 224.5487 L 171.045056 212.702532 " stroke="rgb(17.649841%, 11.369324%, 1.959229%)" stroke-width="6" stroke-opacity="1" stroke-miterlimit="10"/><path fill="rgb(17.649841%, 11.369324%, 1.959229%)" d="M 172.015625 143.269531 C 172.273438 144.097656 172.496094 144.933594 172.679688 145.765625 C 172.867188 146.601562 173.015625 147.421875 173.125 148.230469 C 173.234375 149.039062 173.300781 149.816406 173.328125 150.566406 C 173.355469 151.3125 173.34375 152.019531 173.285156 152.679688 C 173.230469 153.339844 173.132812 153.945312 172.996094 154.492188 C 172.863281 155.039062 172.6875 155.519531 172.476562 155.933594 C 172.261719 156.347656 172.015625 156.6875 171.738281 156.949219 C 171.457031 157.214844 171.148438 157.398438 170.8125 157.503906 C 170.476562 157.605469 170.117188 157.628906 169.738281 157.566406 C 169.359375 157.507812 168.964844 157.367188 168.554688 157.144531 C 168.144531 156.921875 167.730469 156.625 167.308594 156.25 C 166.886719 155.875 166.464844 155.429688 166.042969 154.914062 C 165.625 154.402344 165.214844 153.828125 164.8125 153.195312 C 164.414062 152.5625 164.027344 151.882812 163.664062 151.152344 C 163.296875 150.425781 162.953125 149.664062 162.636719 148.871094 C 162.316406 148.074219 162.03125 147.261719 161.773438 146.433594 C 161.515625 145.601562 161.292969 144.769531 161.105469 143.933594 C 160.921875 143.097656 160.773438 142.277344 160.664062 141.46875 C 160.554688 140.664062 160.484375 139.886719 160.457031 139.136719 C 160.429688 138.386719 160.445312 137.683594 160.5 137.023438 C 160.558594 136.363281 160.652344 135.757812 160.789062 135.210938 C 160.925781 134.660156 161.101562 134.179688 161.3125 133.765625 C 161.527344 133.351562 161.773438 133.015625 162.050781 132.75 C 162.332031 132.484375 162.640625 132.300781 162.976562 132.199219 C 163.3125 132.09375 163.667969 132.074219 164.050781 132.132812 C 164.429688 132.191406 164.824219 132.335938 165.234375 132.554688 C 165.640625 132.777344 166.058594 133.078125 166.480469 133.453125 C 166.902344 133.828125 167.324219 134.273438 167.742188 134.785156 C 168.164062 135.300781 168.574219 135.875 168.976562 136.507812 C 169.375 137.140625 169.757812 137.820312 170.125 138.546875 C 170.492188 139.273438 170.835938 140.035156 171.152344 140.832031 C 171.46875 141.625 171.757812 142.4375 172.015625 143.269531 Z M 172.015625 143.269531 " fill-opacity="1" fill-rule="nonzero"/><path fill="rgb(17.649841%, 11.369324%, 1.959229%)" d="M 218.480469 128.914062 C 218.738281 129.746094 218.960938 130.578125 219.144531 131.414062 C 219.332031 132.25 219.480469 133.070312 219.589844 133.878906 C 219.699219 134.683594 219.765625 135.464844 219.792969 136.210938 C 219.820312 136.960938 219.808594 137.664062 219.75 138.324219 C 219.695312 138.988281 219.597656 139.589844 219.460938 140.140625 C 219.324219 140.6875 219.152344 141.167969 218.9375 141.582031 C 218.726562 141.996094 218.480469 142.335938 218.203125 142.597656 C 217.921875 142.863281 217.613281 143.046875 217.277344 143.148438 C 216.941406 143.253906 216.582031 143.277344 216.203125 143.214844 C 215.824219 143.15625 215.429688 143.015625 215.019531 142.792969 C 214.609375 142.570312 214.195312 142.273438 213.773438 141.894531 C 213.347656 141.519531 212.929688 141.078125 212.507812 140.5625 C 212.089844 140.046875 211.679688 139.476562 211.277344 138.84375 C 210.878906 138.210938 210.492188 137.527344 210.128906 136.800781 C 209.761719 136.074219 209.417969 135.3125 209.101562 134.515625 C 208.78125 133.722656 208.496094 132.910156 208.238281 132.078125 C 207.980469 131.25 207.757812 130.414062 207.570312 129.582031 C 207.382812 128.746094 207.238281 127.925781 207.128906 127.117188 C 207.019531 126.308594 206.949219 125.53125 206.921875 124.785156 C 206.894531 124.035156 206.910156 123.332031 206.964844 122.667969 C 207.023438 122.007812 207.117188 121.40625 207.253906 120.855469 C 207.390625 120.308594 207.566406 119.828125 207.777344 119.414062 C 207.988281 119 208.234375 118.660156 208.515625 118.398438 C 208.796875 118.132812 209.101562 117.949219 209.4375 117.84375 C 209.777344 117.742188 210.132812 117.71875 210.515625 117.78125 C 210.894531 117.839844 211.289062 117.980469 211.699219 118.203125 C 212.105469 118.425781 212.523438 118.722656 212.945312 119.097656 C 213.367188 119.472656 213.789062 119.917969 214.207031 120.433594 C 214.628906 120.945312 215.039062 121.519531 215.4375 122.152344 C 215.839844 122.785156 216.222656 123.464844 216.589844 124.195312 C 216.957031 124.921875 217.296875 125.683594 217.617188 126.476562 C 217.933594 127.273438 218.222656 128.085938 218.480469 128.914062 Z M 218.480469 128.914062 " fill-opacity="1" fill-rule="nonzero"/><path stroke-linecap="round" transform="matrix(0.830837, 0, 0, 0.829646, 19.010551, 5.641589)" fill-opacity="1" fill="rgb(49.798584%, 53.729248%, 54.119873%)" fill-rule="nonzero" stroke-linejoin="round" d="M 218.79435 93.831225 C 209.659171 82.272265 200.994151 78.095973 194.252078 76.636389 C 190.335658 75.788889 187.655755 75.981931 187.495901 75.021431 C 187.053952 72.351806 206.043653 61.339013 220.383486 69.013597 C 228.009456 73.095722 231.088994 80.73264 232.104537 83.689474 " stroke="rgb(17.649841%, 11.369324%, 1.959229%)" stroke-width="6" stroke-opacity="1" stroke-miterlimit="10"/><path stroke-linecap="round" transform="matrix(0.830837, 0, 0, 0.829646, 19.010551, 5.641589)" fill-opacity="1" fill="rgb(49.798584%, 53.729248%, 54.119873%)" fill-rule="nonzero" stroke-linejoin="round" d="M 194.788059 99.335267 C 188.817046 91.872558 183.179846 89.193516 178.797969 88.270683 C 176.254412 87.738641 174.514826 87.875183 174.406689 87.248974 C 174.110489 85.521016 186.391029 78.30314 195.723674 83.228057 C 200.688548 85.845891 202.719632 90.789641 203.387257 92.705933 " stroke="rgb(17.649841%, 11.369324%, 1.959229%)" stroke-width="6" stroke-opacity="1" stroke-miterlimit="10"/><path stroke-linecap="round" transform="matrix(0.830837, 0, 0, 0.829646, 19.010551, 5.641589)" fill-opacity="1" fill="rgb(49.798584%, 53.729248%, 54.119873%)" fill-rule="nonzero" stroke-linejoin="round" d="M 192.606524 213.790157 L 251.357526 195.615988 " stroke="rgb(17.649841%, 11.369324%, 1.959229%)" stroke-width="6" stroke-opacity="1" stroke-miterlimit="10"/><path stroke-linecap="round" transform="matrix(0.830837, 0, 0, 0.829646, 19.010551, 5.641589)" fill-opacity="1" fill="rgb(49.798584%, 53.729248%, 54.119873%)" fill-rule="nonzero" stroke-linejoin="round" d="M 199.137025 211.770281 L 205.53118 217.636865 L 207.374201 209.223073 Z M 199.137025 211.770281 " stroke="rgb(17.649841%, 11.369324%, 1.959229%)" stroke-width="6" stroke-opacity="1" stroke-miterlimit="10"/><path stroke-linecap="round" transform="matrix(0.830837, 0, 0, 0.829646, 19.010551, 5.641589)" fill-opacity="1" fill="rgb(49.798584%, 53.729248%, 54.119873%)" fill-rule="nonzero" stroke-linejoin="round" d="M 237.464343 199.909988 L 243.8632 205.781281 L 245.701519 197.36278 Z M 237.464343 199.909988 " stroke="rgb(17.649841%, 11.369324%, 1.959229%)" stroke-width="6" stroke-opacity="1" stroke-miterlimit="10"/><path stroke-linecap="butt" transform="matrix(0.830837, 0, 0, 0.829646, 19.010551, 5.641589)" fill-opacity="1" fill="rgb(80.389404%, 85.488892%, 99.21875%)" fill-rule="nonzero" stroke-linejoin="miter" d="M 243.284905 229.233492 C 243.284905 230.438825 243.223784 231.639451 243.106245 232.840076 C 242.988705 234.035993 242.810045 235.227201 242.574966 236.408993 C 242.339886 237.590785 242.048388 238.758451 241.700471 239.911993 C 241.347852 241.065535 240.943516 242.200244 240.48276 243.31141 C 240.022005 244.422577 239.504831 245.514911 238.940641 246.574286 C 238.371749 247.638369 237.75114 248.669494 237.083515 249.67237 C 236.411188 250.675245 235.696547 251.640453 234.930189 252.572703 C 234.168532 253.504953 233.35986 254.394828 232.508873 255.247037 C 231.653184 256.099245 230.764585 256.909079 229.833671 257.671829 C 228.898056 258.439287 227.934231 259.154954 226.932793 259.823537 C 225.931356 260.492121 224.897007 261.113621 223.834449 261.678621 C 222.771891 262.248329 221.685825 262.761538 220.571549 263.222955 C 219.457274 263.684371 218.324192 264.089288 217.172304 264.437705 C 216.020415 264.79083 214.849721 265.082746 213.669623 265.318163 C 212.484824 265.55358 211.295323 265.727788 210.096419 265.845497 C 208.897515 265.963205 207.693909 266.024413 206.490303 266.024413 C 205.286697 266.024413 204.083092 265.963205 202.884188 265.845497 C 201.685284 265.727788 200.495783 265.55358 199.310983 265.318163 C 198.130886 265.082746 196.964893 264.79083 195.813004 264.437705 C 194.656414 264.089288 193.523333 263.684371 192.409057 263.222955 C 191.299483 262.761538 190.208715 262.248329 189.146157 261.678621 C 188.083599 261.113621 187.053952 260.492121 186.052514 259.823537 C 185.046375 259.154954 184.082551 258.439287 183.151637 257.671829 C 182.220723 256.909079 181.327422 256.099245 180.476435 255.247037 C 179.620747 254.394828 178.816776 253.504953 178.050417 252.572703 C 177.284059 251.640453 176.569418 250.675245 175.901793 249.67237 C 175.229467 248.669494 174.613559 247.638369 174.044667 246.574286 C 173.475775 245.514911 172.958601 244.422577 172.497846 243.31141 C 172.037091 242.200244 171.632754 241.065535 171.284837 239.911993 C 170.932218 238.758451 170.64072 237.590785 170.405641 236.408993 C 170.170561 235.227201 169.996603 234.035993 169.874362 232.840076 C 169.756822 231.639451 169.700403 230.438825 169.700403 229.233492 C 169.700403 228.028158 169.756822 226.822825 169.874362 225.626908 C 169.996603 224.426283 170.170561 223.235075 170.405641 222.053283 C 170.64072 220.871491 170.932218 219.703824 171.284837 218.550282 C 171.632754 217.39674 172.037091 216.26674 172.497846 215.150865 C 172.958601 214.039698 173.475775 212.952073 174.044667 211.88799 C 174.613559 210.823906 175.229467 209.792781 175.901793 208.789906 C 176.569418 207.791739 177.284059 206.821822 178.050417 205.889572 C 178.816776 204.962031 179.620747 204.067447 180.476435 203.215239 C 181.327422 202.36303 182.220723 201.557905 183.151637 200.790447 C 184.082551 200.027697 185.046375 199.31203 186.052514 198.638738 C 187.053952 197.970155 188.083599 197.353363 189.146157 196.783655 C 190.208715 196.218654 191.299483 195.700738 192.409057 195.239321 C 193.523333 194.777904 194.656414 194.372988 195.813004 194.024571 C 196.964893 193.676154 198.130886 193.384237 199.310983 193.148821 C 200.495783 192.913404 201.685284 192.734487 202.884188 192.616779 C 204.083092 192.499071 205.286697 192.437862 206.490303 192.437862 C 207.693909 192.437862 208.897515 192.499071 210.096419 192.616779 C 211.295323 192.734487 212.484824 192.913404 213.669623 193.148821 C 214.849721 193.384237 216.020415 193.676154 217.172304 194.024571 C 218.324192 194.372988 219.457274 194.777904 220.571549 195.239321 C 221.685825 195.700738 222.771891 196.218654 223.834449 196.783655 C 224.897007 197.353363 225.931356 197.970155 226.932793 198.638738 C 227.934231 199.31203 228.898056 200.027697 229.833671 200.790447 C 230.764585 201.557905 231.653184 202.36303 232.508873 203.215239 C 233.35986 204.067447 234.168532 204.962031 234.930189 205.889572 C 235.696547 206.821822 236.411188 207.791739 237.083515 208.789906 C 237.75114 209.792781 238.371749 210.823906 238.940641 211.88799 C 239.504831 212.952073 240.022005 214.039698 240.48276 215.150865 C 240.943516 216.26674 241.347852 217.39674 241.700471 218.550282 C 242.048388 219.703824 242.339886 220.871491 242.574966 222.053283 C 242.810045 223.235075 242.988705 224.426283 243.106245 225.626908 C 243.223784 226.822825 243.284905 228.028158 243.284905 229.233492 Z M 243.284905 229.233492 " stroke="rgb(17.649841%, 11.369324%, 1.959229%)" stroke-width="6" stroke-opacity="1" stroke-miterlimit="10"/><path stroke-linecap="round" transform="matrix(0.830837, 0, 0, 0.829646, 19.010551, 5.641589)" fill-opacity="1" fill="rgb(49.798584%, 53.729248%, 54.119873%)" fill-rule="nonzero" stroke-linejoin="round" d="M 290.521726 253.11887 L 247.934772 254.338328 C 237.252772 254.64437 228.263342 246.155244 227.953037 235.472034 C 227.647434 224.788825 236.138496 215.795907 246.820497 215.489865 L 289.407451 214.270407 " stroke="rgb(17.649841%, 11.369324%, 1.959229%)" stroke-width="6" stroke-opacity="1" stroke-miterlimit="10"/><path stroke-linecap="round" transform="matrix(0.830837, 0, 0, 0.829646, 19.010551, 5.641589)" fill-opacity="1" fill="rgb(49.798584%, 53.729248%, 54.119873%)" fill-rule="nonzero" stroke-linejoin="round" d="M 184.618531 239.700118 C 184.618531 240.392243 184.590322 241.07966 184.533903 241.767077 C 184.482185 242.454494 184.397557 243.132494 184.284719 243.810494 C 184.176582 244.488494 184.035535 245.157077 183.870979 245.816244 C 183.706424 246.480119 183.513659 247.125161 183.297386 247.765494 C 183.076411 248.401119 182.836631 249.027328 182.563939 249.634703 C 182.295948 250.242078 182.00445 250.835328 181.689444 251.409745 C 181.369736 251.984161 181.031222 252.535037 180.6692 253.071787 C 180.31188 253.603828 179.92635 254.112328 179.526715 254.601995 C 179.122379 255.091662 178.699236 255.553079 178.257287 255.990954 C 177.82004 256.428829 177.363986 256.838454 176.889126 257.224537 C 176.414266 257.605912 175.925301 257.959037 175.422232 258.288621 C 174.919162 258.613496 174.406689 258.905412 173.880112 259.169079 C 173.353534 259.432746 172.817554 259.668162 172.27217 259.865912 C 171.726786 260.068371 171.176701 260.233163 170.617212 260.369704 C 170.057723 260.506246 169.493533 260.605121 168.929343 260.675746 C 168.360451 260.741663 167.79156 260.774621 167.222668 260.774621 C 166.653776 260.774621 166.084884 260.741663 165.515993 260.675746 C 164.951802 260.605121 164.387612 260.506246 163.828124 260.369704 C 163.268635 260.233163 162.71855 260.068371 162.173166 259.865912 C 161.627782 259.668162 161.091801 259.432746 160.565224 259.169079 C 160.038646 258.905412 159.526174 258.613496 159.023104 258.288621 C 158.520035 257.959037 158.03107 257.605912 157.55621 257.224537 C 157.086051 256.838454 156.625296 256.428829 156.188049 255.990954 C 155.7461 255.553079 155.322957 255.091662 154.923322 254.601995 C 154.518986 254.112328 154.138158 253.603828 153.776136 253.071787 C 153.414114 252.535037 153.075599 251.984161 152.755892 251.409745 C 152.440886 250.835328 152.149387 250.242078 151.881397 249.634703 C 151.613407 249.027328 151.368924 248.401119 151.14795 247.765494 C 150.931677 247.125161 150.738912 246.480119 150.574356 245.816244 C 150.409801 245.157077 150.273455 244.488494 150.160617 243.810494 C 150.047779 243.132494 149.967852 242.454494 149.911433 241.767077 C 149.855014 241.07966 149.826804 240.392243 149.826804 239.700118 C 149.826804 239.007993 149.855014 238.320576 149.911433 237.63316 C 149.967852 236.945743 150.047779 236.267743 150.160617 235.589743 C 150.273455 234.911743 150.409801 234.243159 150.574356 233.583992 C 150.738912 232.920117 150.931677 232.270367 151.14795 231.634742 C 151.368924 230.999117 151.613407 230.372909 151.881397 229.765534 C 152.149387 229.158159 152.440886 228.564909 152.755892 227.990492 C 153.075599 227.416075 153.414114 226.8652 153.776136 226.32845 C 154.138158 225.796408 154.518986 225.287908 154.923322 224.798241 C 155.322957 224.308575 155.7461 223.847158 156.188049 223.409283 C 156.625296 222.971408 157.086051 222.561783 157.55621 222.175699 C 158.03107 221.794324 158.520035 221.441199 159.023104 221.111616 C 159.526174 220.786741 160.038646 220.494824 160.565224 220.231157 C 161.091801 219.962782 161.627782 219.732074 162.173166 219.534324 C 162.71855 219.331866 163.268635 219.162366 163.828124 219.030532 C 164.387612 218.893991 164.951802 218.795116 165.515993 218.724491 C 166.084884 218.658574 166.653776 218.625616 167.222668 218.625616 C 167.79156 218.625616 168.360451 218.658574 168.929343 218.724491 C 169.493533 218.795116 170.057723 218.893991 170.617212 219.030532 C 171.176701 219.162366 171.726786 219.331866 172.27217 219.534324 C 172.817554 219.732074 173.353534 219.962782 173.880112 220.231157 C 174.406689 220.494824 174.919162 220.786741 175.422232 221.111616 C 175.925301 221.441199 176.414266 221.794324 176.889126 222.175699 C 177.363986 222.561783 177.82004 222.971408 178.257287 223.409283 C 178.699236 223.847158 179.122379 224.308575 179.526715 224.798241 C 179.92635 225.287908 180.31188 225.796408 180.6692 226.32845 C 181.031222 226.8652 181.369736 227.416075 181.689444 227.990492 C 182.00445 228.564909 182.295948 229.158159 182.563939 229.765534 C 182.836631 230.372909 183.076411 230.999117 183.297386 231.634742 C 183.513659 232.270367 183.706424 232.920117 183.870979 233.583992 C 184.035535 234.243159 184.176582 234.911743 184.284719 235.589743 C 184.397557 236.267743 184.482185 236.945743 184.533903 237.63316 C 184.590322 238.320576 184.618531 239.007993 184.618531 239.700118 Z M 184.618531 239.700118 " stroke="rgb(17.649841%, 11.369324%, 1.959229%)" stroke-width="6" stroke-opacity="1" stroke-miterlimit="10"/></svg>